%TF.GenerationSoftware,KiCad,Pcbnew,(5.0.1)-4*%
%TF.CreationDate,2019-03-02T12:31:38+00:00*%
%TF.ProjectId,camera module,63616D657261206D6F64756C652E6B69,rev?*%
%TF.SameCoordinates,Original*%
%TF.FileFunction,Plated,1,2,PTH,Mixed*%
%TF.FilePolarity,Positive*%
%FSLAX46Y46*%
G04 Gerber Fmt 4.6, Leading zero omitted, Abs format (unit mm)*
G04 Created by KiCad (PCBNEW (5.0.1)-4) date 02/03/2019 12:31:38*
%MOMM*%
%LPD*%
G01*
G04 APERTURE LIST*
%TA.AperFunction,ViaDrill*%
%ADD10C,0.400000*%
%TD*%
%TA.AperFunction,Slot*%
%ADD11C,0.550000*%
%TD*%
%TA.AperFunction,ComponentDrill*%
%ADD12C,0.600000*%
%TD*%
%TA.AperFunction,ComponentDrill*%
%ADD13C,0.812800*%
%TD*%
%TA.AperFunction,Slot*%
%ADD14C,0.850000*%
%TD*%
%TA.AperFunction,ComponentDrill*%
%ADD15C,1.000000*%
%TD*%
%TA.AperFunction,ComponentDrill*%
%ADD16C,1.700000*%
%TD*%
%TA.AperFunction,ComponentDrill*%
%ADD17C,2.200000*%
%TD*%
G04 APERTURE END LIST*
D10*
X50010000Y-51170000D03*
X50770000Y-49690000D03*
X52170000Y-50400000D03*
X52826831Y-64171034D03*
X52830000Y-65790000D03*
X55125000Y-79075000D03*
X55260000Y-52310000D03*
X55930000Y-58230000D03*
X56640000Y-60650000D03*
X57560000Y-52440000D03*
X57630000Y-60510000D03*
X59280000Y-112390000D03*
X60440000Y-55060000D03*
X60490000Y-76580000D03*
X60890000Y-80940000D03*
X62070000Y-66150000D03*
X62290000Y-64940000D03*
X64140000Y-57650000D03*
X64610000Y-127880000D03*
X64950000Y-38650000D03*
X65010000Y-46790000D03*
X65278000Y-119634000D03*
X65480000Y-62370000D03*
X65660000Y-53300000D03*
X67300000Y-44950000D03*
X71150000Y-98975000D03*
X75675000Y-134650000D03*
X76725000Y-134650000D03*
X77275000Y-117400000D03*
X77375000Y-115850000D03*
X78000000Y-97050000D03*
X78020000Y-57120000D03*
X78060000Y-58180000D03*
X78090000Y-59130000D03*
X79190000Y-60830000D03*
X79248000Y-113030000D03*
X79500000Y-134550000D03*
X79568768Y-101348768D03*
X79990000Y-106190000D03*
X80100000Y-59890000D03*
X80311232Y-102091232D03*
X80550000Y-134550000D03*
X80877810Y-120525000D03*
X81980000Y-117680000D03*
X82150001Y-120525000D03*
X82775000Y-134425000D03*
X83820000Y-122050000D03*
X83825000Y-134425000D03*
X84150000Y-85672167D03*
X84328000Y-101854000D03*
X84328000Y-124714000D03*
X84360000Y-93430000D03*
X84470000Y-120720000D03*
X84611545Y-61265878D03*
X85354009Y-60523414D03*
X85970000Y-120910000D03*
X86650000Y-133375000D03*
X86670000Y-122620000D03*
X86955000Y-99030000D03*
X87025000Y-124025000D03*
X87602442Y-60999748D03*
X87800000Y-132150000D03*
X88005000Y-99030000D03*
X88100010Y-120530000D03*
X88344906Y-60257284D03*
X88750010Y-122675000D03*
X89263073Y-60579364D03*
X89408000Y-126746000D03*
X89820000Y-117560000D03*
X90313073Y-60579364D03*
X90400000Y-101040000D03*
X91018768Y-91701232D03*
X91248768Y-60231232D03*
X91761232Y-90958768D03*
X91991232Y-59488768D03*
X92310000Y-56505000D03*
X92310000Y-57555000D03*
X92430000Y-118060000D03*
X92470000Y-65250000D03*
X93306070Y-57585156D03*
X93380000Y-112040000D03*
X93448768Y-91731232D03*
X93490000Y-65440000D03*
X94048534Y-58327620D03*
X94191232Y-90988768D03*
X94570000Y-66170000D03*
X95300000Y-119100000D03*
X95568768Y-89681232D03*
X95790000Y-66000000D03*
X96010000Y-118450000D03*
X96090000Y-123910000D03*
X96311232Y-88938768D03*
X98115000Y-52630000D03*
X98418058Y-109301942D03*
X98970000Y-114740000D03*
X99165000Y-52630000D03*
X99910000Y-91140000D03*
X100838000Y-88138000D03*
X100980000Y-121720000D03*
X101890000Y-124720000D03*
X104475000Y-66700000D03*
X104860000Y-118900000D03*
X105720000Y-127480000D03*
X106200000Y-58640000D03*
X107090000Y-128400000D03*
X109325000Y-65325000D03*
X109425000Y-66275000D03*
X111190000Y-119800000D03*
X111675000Y-65275000D03*
X112150000Y-96130000D03*
X112750000Y-65350000D03*
X113400000Y-66050000D03*
X113538000Y-90424000D03*
X114650000Y-42520000D03*
X114675000Y-65825000D03*
X116078000Y-100330000D03*
X116625000Y-66025000D03*
X117250000Y-125760000D03*
X117900000Y-131775000D03*
X117900000Y-132825000D03*
X118350000Y-66725000D03*
X118525000Y-95925000D03*
X119050000Y-65500000D03*
X119251942Y-59531942D03*
X119800000Y-64850000D03*
X120150000Y-66250000D03*
X120830000Y-58980000D03*
X121240000Y-96430000D03*
X121610000Y-53980000D03*
X122265000Y-54930000D03*
X123073000Y-55880000D03*
X123220000Y-60960000D03*
X123380000Y-59900000D03*
X123698000Y-127762000D03*
X125425000Y-65450000D03*
X125575000Y-90175000D03*
X125610000Y-57920000D03*
X125725000Y-59625000D03*
X126588026Y-58279141D03*
X127530000Y-58030000D03*
X127575000Y-56825000D03*
X127730000Y-65800000D03*
X128550000Y-127575000D03*
X128550000Y-128625000D03*
X129080000Y-49500000D03*
X129570000Y-59510000D03*
X129570000Y-66270000D03*
X130302000Y-51054000D03*
X130330869Y-131675000D03*
X130330869Y-132725000D03*
X130800000Y-125175000D03*
X131000000Y-64800000D03*
X131175000Y-51930000D03*
X131690000Y-124460000D03*
X131950000Y-133025000D03*
X131950000Y-134075000D03*
X131960000Y-50640000D03*
X133600000Y-124820000D03*
X133610000Y-122110000D03*
X133678768Y-127303768D03*
X134421232Y-128046232D03*
X134620000Y-84328000D03*
X134645000Y-51060000D03*
X134750000Y-125350000D03*
X135139778Y-52394107D03*
X135950000Y-126700000D03*
X136270000Y-65030000D03*
X136430000Y-52070000D03*
X137280000Y-62550000D03*
X137320000Y-53060000D03*
X137990000Y-114130000D03*
X138280000Y-93460000D03*
D11*
%TO.C,J2*%
X145428841Y-98079946D02*
X146078841Y-98079946D01*
X145428841Y-105829946D02*
X146078841Y-105829946D01*
%TO.C,J17*%
X49675000Y-72225000D02*
X49025000Y-72225000D01*
X49675000Y-79975000D02*
X49025000Y-79975000D01*
D12*
%TO.C,J9*%
X129050000Y-130600000D03*
X129050000Y-135100000D03*
X139900000Y-130600000D03*
X139900000Y-135100000D03*
%TO.C,J8*%
X48310000Y-42555000D03*
X48310000Y-53405000D03*
X52810000Y-42555000D03*
X52810000Y-53405000D03*
%TO.C,J5*%
X57025000Y-130650000D03*
X57025000Y-135150000D03*
X67875000Y-130650000D03*
X67875000Y-135150000D03*
D13*
%TO.C,SW1*%
X51945000Y-107305000D03*
X51945000Y-114925000D03*
X57025000Y-107305000D03*
X57025000Y-114925000D03*
D14*
%TO.C,J2*%
X141678841Y-98229946D02*
X142228841Y-98229946D01*
X141678841Y-105679946D02*
X142228841Y-105679946D01*
%TO.C,J17*%
X53425000Y-72375000D02*
X52875000Y-72375000D01*
X53425000Y-79825000D02*
X52875000Y-79825000D01*
D15*
%TO.C,J10*%
X144450000Y-77355000D03*
X144450000Y-79895000D03*
X144450000Y-82435000D03*
X144450000Y-84975000D03*
%TO.C,J13*%
X65400000Y-82925000D03*
X65400000Y-85465000D03*
%TO.C,J11*%
X144475000Y-63245000D03*
X144475000Y-65785000D03*
X144475000Y-68325000D03*
X144475000Y-70865000D03*
X144475000Y-73405000D03*
%TO.C,J15*%
X68605000Y-38385000D03*
X68605000Y-40925000D03*
X71145000Y-38385000D03*
X71145000Y-40925000D03*
X73685000Y-38385000D03*
X73685000Y-40925000D03*
X76225000Y-38385000D03*
X76225000Y-40925000D03*
X78765000Y-38385000D03*
X78765000Y-40925000D03*
X81305000Y-38385000D03*
X81305000Y-40925000D03*
X83845000Y-38385000D03*
X83845000Y-40925000D03*
X86385000Y-38385000D03*
X86385000Y-40925000D03*
X88925000Y-38385000D03*
X88925000Y-40925000D03*
X91465000Y-38385000D03*
X91465000Y-40925000D03*
X94005000Y-38385000D03*
X94005000Y-40925000D03*
X96545000Y-38385000D03*
X96545000Y-40925000D03*
X99085000Y-38385000D03*
X99085000Y-40925000D03*
X101625000Y-38385000D03*
X101625000Y-40925000D03*
X104165000Y-38385000D03*
X104165000Y-40925000D03*
X106705000Y-38385000D03*
X106705000Y-40925000D03*
X109245000Y-38385000D03*
X109245000Y-40925000D03*
X111785000Y-38385000D03*
X111785000Y-40925000D03*
X114325000Y-38385000D03*
X114325000Y-40925000D03*
X116865000Y-38385000D03*
X116865000Y-40925000D03*
X119405000Y-38385000D03*
X119405000Y-40925000D03*
X121945000Y-38385000D03*
X121945000Y-40925000D03*
X124485000Y-38385000D03*
X124485000Y-40925000D03*
X127025000Y-38385000D03*
X127025000Y-40925000D03*
X129565000Y-38385000D03*
X129565000Y-40925000D03*
X132105000Y-38385000D03*
X132105000Y-40925000D03*
X134645000Y-38385000D03*
X134645000Y-40925000D03*
X137185000Y-38385000D03*
X137185000Y-40925000D03*
X139725000Y-38385000D03*
X139725000Y-40925000D03*
X142265000Y-38385000D03*
X142265000Y-40925000D03*
%TO.C,J18*%
X62850000Y-71310000D03*
X62850000Y-73850000D03*
X62850000Y-76390000D03*
%TO.C,J12*%
X144450000Y-46750000D03*
X144450000Y-49290000D03*
X144450000Y-51830000D03*
X144450000Y-54370000D03*
X144450000Y-56910000D03*
X144450000Y-59450000D03*
%TO.C,J7*%
X144480000Y-88970000D03*
X144480000Y-91510000D03*
D16*
%TO.C,J1*%
X142550000Y-110970000D03*
X142550000Y-116050000D03*
D17*
%TO.C,H2*%
X51020000Y-132990000D03*
%TO.C,H1*%
X50870000Y-38530000D03*
%TO.C,H4*%
X144180000Y-131860000D03*
%TO.C,H3*%
X139840000Y-86240000D03*
M02*
