%TF.GenerationSoftware,KiCad,Pcbnew,(5.0.1)-4*%
%TF.CreationDate,2019-03-02T12:31:22+00:00*%
%TF.ProjectId,camera module,63616D657261206D6F64756C652E6B69,rev?*%
%TF.SameCoordinates,Original*%
%TF.FileFunction,Legend,Bot*%
%TF.FilePolarity,Positive*%
%FSLAX46Y46*%
G04 Gerber Fmt 4.6, Leading zero omitted, Abs format (unit mm)*
G04 Created by KiCad (PCBNEW (5.0.1)-4) date 02/03/2019 12:31:22*
%MOMM*%
%LPD*%
G01*
G04 APERTURE LIST*
%ADD10C,0.125000*%
%ADD11C,0.300000*%
%ADD12C,0.250000*%
%ADD13C,0.187500*%
%ADD14C,0.150000*%
%ADD15C,0.120000*%
%ADD16C,0.127000*%
%ADD17C,0.400000*%
%ADD18C,0.200000*%
%ADD19C,0.050000*%
%ADD20C,0.100000*%
%ADD21C,0.304800*%
%ADD22C,0.254000*%
G04 APERTURE END LIST*
D10*
X94182142Y-84122857D02*
X93848809Y-84122857D01*
X94372619Y-84241904D02*
X94015476Y-84360952D01*
X94015476Y-84051428D01*
X93848809Y-83599047D02*
X93848809Y-83884761D01*
X93848809Y-83741904D02*
X94348809Y-83741904D01*
X94277380Y-83789523D01*
X94229761Y-83837142D01*
X94205952Y-83884761D01*
X93307142Y-84122857D02*
X92973809Y-84122857D01*
X93497619Y-84241904D02*
X93140476Y-84360952D01*
X93140476Y-84051428D01*
X93426190Y-83884761D02*
X93450000Y-83860952D01*
X93473809Y-83813333D01*
X93473809Y-83694285D01*
X93450000Y-83646666D01*
X93426190Y-83622857D01*
X93378571Y-83599047D01*
X93330952Y-83599047D01*
X93259523Y-83622857D01*
X92973809Y-83908571D01*
X92973809Y-83599047D01*
X92432142Y-84122857D02*
X92098809Y-84122857D01*
X92622619Y-84241904D02*
X92265476Y-84360952D01*
X92265476Y-84051428D01*
X92598809Y-83908571D02*
X92598809Y-83599047D01*
X92408333Y-83765714D01*
X92408333Y-83694285D01*
X92384523Y-83646666D01*
X92360714Y-83622857D01*
X92313095Y-83599047D01*
X92194047Y-83599047D01*
X92146428Y-83622857D01*
X92122619Y-83646666D01*
X92098809Y-83694285D01*
X92098809Y-83837142D01*
X92122619Y-83884761D01*
X92146428Y-83908571D01*
X98868809Y-84054761D02*
X98868809Y-83745238D01*
X98678333Y-83911904D01*
X98678333Y-83840476D01*
X98654523Y-83792857D01*
X98630714Y-83769047D01*
X98583095Y-83745238D01*
X98464047Y-83745238D01*
X98416428Y-83769047D01*
X98392619Y-83792857D01*
X98368809Y-83840476D01*
X98368809Y-83983333D01*
X98392619Y-84030952D01*
X98416428Y-84054761D01*
X98654523Y-83459523D02*
X98678333Y-83507142D01*
X98702142Y-83530952D01*
X98749761Y-83554761D01*
X98773571Y-83554761D01*
X98821190Y-83530952D01*
X98845000Y-83507142D01*
X98868809Y-83459523D01*
X98868809Y-83364285D01*
X98845000Y-83316666D01*
X98821190Y-83292857D01*
X98773571Y-83269047D01*
X98749761Y-83269047D01*
X98702142Y-83292857D01*
X98678333Y-83316666D01*
X98654523Y-83364285D01*
X98654523Y-83459523D01*
X98630714Y-83507142D01*
X98606904Y-83530952D01*
X98559285Y-83554761D01*
X98464047Y-83554761D01*
X98416428Y-83530952D01*
X98392619Y-83507142D01*
X98368809Y-83459523D01*
X98368809Y-83364285D01*
X98392619Y-83316666D01*
X98416428Y-83292857D01*
X98464047Y-83269047D01*
X98559285Y-83269047D01*
X98606904Y-83292857D01*
X98630714Y-83316666D01*
X98654523Y-83364285D01*
X97993809Y-84054761D02*
X97993809Y-83745238D01*
X97803333Y-83911904D01*
X97803333Y-83840476D01*
X97779523Y-83792857D01*
X97755714Y-83769047D01*
X97708095Y-83745238D01*
X97589047Y-83745238D01*
X97541428Y-83769047D01*
X97517619Y-83792857D01*
X97493809Y-83840476D01*
X97493809Y-83983333D01*
X97517619Y-84030952D01*
X97541428Y-84054761D01*
X97493809Y-83507142D02*
X97493809Y-83411904D01*
X97517619Y-83364285D01*
X97541428Y-83340476D01*
X97612857Y-83292857D01*
X97708095Y-83269047D01*
X97898571Y-83269047D01*
X97946190Y-83292857D01*
X97970000Y-83316666D01*
X97993809Y-83364285D01*
X97993809Y-83459523D01*
X97970000Y-83507142D01*
X97946190Y-83530952D01*
X97898571Y-83554761D01*
X97779523Y-83554761D01*
X97731904Y-83530952D01*
X97708095Y-83507142D01*
X97684285Y-83459523D01*
X97684285Y-83364285D01*
X97708095Y-83316666D01*
X97731904Y-83292857D01*
X97779523Y-83269047D01*
X96952142Y-83792857D02*
X96618809Y-83792857D01*
X97142619Y-83911904D02*
X96785476Y-84030952D01*
X96785476Y-83721428D01*
X97118809Y-83435714D02*
X97118809Y-83388095D01*
X97095000Y-83340476D01*
X97071190Y-83316666D01*
X97023571Y-83292857D01*
X96928333Y-83269047D01*
X96809285Y-83269047D01*
X96714047Y-83292857D01*
X96666428Y-83316666D01*
X96642619Y-83340476D01*
X96618809Y-83388095D01*
X96618809Y-83435714D01*
X96642619Y-83483333D01*
X96666428Y-83507142D01*
X96714047Y-83530952D01*
X96809285Y-83554761D01*
X96928333Y-83554761D01*
X97023571Y-83530952D01*
X97071190Y-83507142D01*
X97095000Y-83483333D01*
X97118809Y-83435714D01*
D11*
X103264285Y-85718571D02*
X102335714Y-85718571D01*
X102835714Y-86290000D01*
X102621428Y-86290000D01*
X102478571Y-86361428D01*
X102407142Y-86432857D01*
X102335714Y-86575714D01*
X102335714Y-86932857D01*
X102407142Y-87075714D01*
X102478571Y-87147142D01*
X102621428Y-87218571D01*
X103050000Y-87218571D01*
X103192857Y-87147142D01*
X103264285Y-87075714D01*
X101835714Y-85718571D02*
X100835714Y-85718571D01*
X101478571Y-87218571D01*
X107824285Y-85678571D02*
X106895714Y-85678571D01*
X107395714Y-86250000D01*
X107181428Y-86250000D01*
X107038571Y-86321428D01*
X106967142Y-86392857D01*
X106895714Y-86535714D01*
X106895714Y-86892857D01*
X106967142Y-87035714D01*
X107038571Y-87107142D01*
X107181428Y-87178571D01*
X107610000Y-87178571D01*
X107752857Y-87107142D01*
X107824285Y-87035714D01*
X105610000Y-85678571D02*
X105895714Y-85678571D01*
X106038571Y-85750000D01*
X106110000Y-85821428D01*
X106252857Y-86035714D01*
X106324285Y-86321428D01*
X106324285Y-86892857D01*
X106252857Y-87035714D01*
X106181428Y-87107142D01*
X106038571Y-87178571D01*
X105752857Y-87178571D01*
X105610000Y-87107142D01*
X105538571Y-87035714D01*
X105467142Y-86892857D01*
X105467142Y-86535714D01*
X105538571Y-86392857D01*
X105610000Y-86321428D01*
X105752857Y-86250000D01*
X106038571Y-86250000D01*
X106181428Y-86321428D01*
X106252857Y-86392857D01*
X106324285Y-86535714D01*
X112084285Y-85488571D02*
X111155714Y-85488571D01*
X111655714Y-86060000D01*
X111441428Y-86060000D01*
X111298571Y-86131428D01*
X111227142Y-86202857D01*
X111155714Y-86345714D01*
X111155714Y-86702857D01*
X111227142Y-86845714D01*
X111298571Y-86917142D01*
X111441428Y-86988571D01*
X111870000Y-86988571D01*
X112012857Y-86917142D01*
X112084285Y-86845714D01*
X109798571Y-85488571D02*
X110512857Y-85488571D01*
X110584285Y-86202857D01*
X110512857Y-86131428D01*
X110370000Y-86060000D01*
X110012857Y-86060000D01*
X109870000Y-86131428D01*
X109798571Y-86202857D01*
X109727142Y-86345714D01*
X109727142Y-86702857D01*
X109798571Y-86845714D01*
X109870000Y-86917142D01*
X110012857Y-86988571D01*
X110370000Y-86988571D01*
X110512857Y-86917142D01*
X110584285Y-86845714D01*
X116204285Y-85568571D02*
X115275714Y-85568571D01*
X115775714Y-86140000D01*
X115561428Y-86140000D01*
X115418571Y-86211428D01*
X115347142Y-86282857D01*
X115275714Y-86425714D01*
X115275714Y-86782857D01*
X115347142Y-86925714D01*
X115418571Y-86997142D01*
X115561428Y-87068571D01*
X115990000Y-87068571D01*
X116132857Y-86997142D01*
X116204285Y-86925714D01*
X113990000Y-86068571D02*
X113990000Y-87068571D01*
X114347142Y-85497142D02*
X114704285Y-86568571D01*
X113775714Y-86568571D01*
X120174285Y-85538571D02*
X119245714Y-85538571D01*
X119745714Y-86110000D01*
X119531428Y-86110000D01*
X119388571Y-86181428D01*
X119317142Y-86252857D01*
X119245714Y-86395714D01*
X119245714Y-86752857D01*
X119317142Y-86895714D01*
X119388571Y-86967142D01*
X119531428Y-87038571D01*
X119960000Y-87038571D01*
X120102857Y-86967142D01*
X120174285Y-86895714D01*
X118745714Y-85538571D02*
X117817142Y-85538571D01*
X118317142Y-86110000D01*
X118102857Y-86110000D01*
X117960000Y-86181428D01*
X117888571Y-86252857D01*
X117817142Y-86395714D01*
X117817142Y-86752857D01*
X117888571Y-86895714D01*
X117960000Y-86967142D01*
X118102857Y-87038571D01*
X118531428Y-87038571D01*
X118674285Y-86967142D01*
X118745714Y-86895714D01*
X124414285Y-85408571D02*
X123485714Y-85408571D01*
X123985714Y-85980000D01*
X123771428Y-85980000D01*
X123628571Y-86051428D01*
X123557142Y-86122857D01*
X123485714Y-86265714D01*
X123485714Y-86622857D01*
X123557142Y-86765714D01*
X123628571Y-86837142D01*
X123771428Y-86908571D01*
X124200000Y-86908571D01*
X124342857Y-86837142D01*
X124414285Y-86765714D01*
X122914285Y-85551428D02*
X122842857Y-85480000D01*
X122700000Y-85408571D01*
X122342857Y-85408571D01*
X122200000Y-85480000D01*
X122128571Y-85551428D01*
X122057142Y-85694285D01*
X122057142Y-85837142D01*
X122128571Y-86051428D01*
X122985714Y-86908571D01*
X122057142Y-86908571D01*
X128734285Y-85278571D02*
X127805714Y-85278571D01*
X128305714Y-85850000D01*
X128091428Y-85850000D01*
X127948571Y-85921428D01*
X127877142Y-85992857D01*
X127805714Y-86135714D01*
X127805714Y-86492857D01*
X127877142Y-86635714D01*
X127948571Y-86707142D01*
X128091428Y-86778571D01*
X128520000Y-86778571D01*
X128662857Y-86707142D01*
X128734285Y-86635714D01*
X126377142Y-86778571D02*
X127234285Y-86778571D01*
X126805714Y-86778571D02*
X126805714Y-85278571D01*
X126948571Y-85492857D01*
X127091428Y-85635714D01*
X127234285Y-85707142D01*
X132704285Y-85368571D02*
X131775714Y-85368571D01*
X132275714Y-85940000D01*
X132061428Y-85940000D01*
X131918571Y-86011428D01*
X131847142Y-86082857D01*
X131775714Y-86225714D01*
X131775714Y-86582857D01*
X131847142Y-86725714D01*
X131918571Y-86797142D01*
X132061428Y-86868571D01*
X132490000Y-86868571D01*
X132632857Y-86797142D01*
X132704285Y-86725714D01*
X130847142Y-85368571D02*
X130704285Y-85368571D01*
X130561428Y-85440000D01*
X130490000Y-85511428D01*
X130418571Y-85654285D01*
X130347142Y-85940000D01*
X130347142Y-86297142D01*
X130418571Y-86582857D01*
X130490000Y-86725714D01*
X130561428Y-86797142D01*
X130704285Y-86868571D01*
X130847142Y-86868571D01*
X130990000Y-86797142D01*
X131061428Y-86725714D01*
X131132857Y-86582857D01*
X131204285Y-86297142D01*
X131204285Y-85940000D01*
X131132857Y-85654285D01*
X131061428Y-85511428D01*
X130990000Y-85440000D01*
X130847142Y-85368571D01*
X136932857Y-85441428D02*
X136861428Y-85370000D01*
X136718571Y-85298571D01*
X136361428Y-85298571D01*
X136218571Y-85370000D01*
X136147142Y-85441428D01*
X136075714Y-85584285D01*
X136075714Y-85727142D01*
X136147142Y-85941428D01*
X137004285Y-86798571D01*
X136075714Y-86798571D01*
X135361428Y-86798571D02*
X135075714Y-86798571D01*
X134932857Y-86727142D01*
X134861428Y-86655714D01*
X134718571Y-86441428D01*
X134647142Y-86155714D01*
X134647142Y-85584285D01*
X134718571Y-85441428D01*
X134790000Y-85370000D01*
X134932857Y-85298571D01*
X135218571Y-85298571D01*
X135361428Y-85370000D01*
X135432857Y-85441428D01*
X135504285Y-85584285D01*
X135504285Y-85941428D01*
X135432857Y-86084285D01*
X135361428Y-86155714D01*
X135218571Y-86227142D01*
X134932857Y-86227142D01*
X134790000Y-86155714D01*
X134718571Y-86084285D01*
X134647142Y-85941428D01*
X141452857Y-85351428D02*
X141381428Y-85280000D01*
X141238571Y-85208571D01*
X140881428Y-85208571D01*
X140738571Y-85280000D01*
X140667142Y-85351428D01*
X140595714Y-85494285D01*
X140595714Y-85637142D01*
X140667142Y-85851428D01*
X141524285Y-86708571D01*
X140595714Y-86708571D01*
X139738571Y-85851428D02*
X139881428Y-85780000D01*
X139952857Y-85708571D01*
X140024285Y-85565714D01*
X140024285Y-85494285D01*
X139952857Y-85351428D01*
X139881428Y-85280000D01*
X139738571Y-85208571D01*
X139452857Y-85208571D01*
X139310000Y-85280000D01*
X139238571Y-85351428D01*
X139167142Y-85494285D01*
X139167142Y-85565714D01*
X139238571Y-85708571D01*
X139310000Y-85780000D01*
X139452857Y-85851428D01*
X139738571Y-85851428D01*
X139881428Y-85922857D01*
X139952857Y-85994285D01*
X140024285Y-86137142D01*
X140024285Y-86422857D01*
X139952857Y-86565714D01*
X139881428Y-86637142D01*
X139738571Y-86708571D01*
X139452857Y-86708571D01*
X139310000Y-86637142D01*
X139238571Y-86565714D01*
X139167142Y-86422857D01*
X139167142Y-86137142D01*
X139238571Y-85994285D01*
X139310000Y-85922857D01*
X139452857Y-85851428D01*
X68877142Y-75738571D02*
X67948571Y-75738571D01*
X68448571Y-76310000D01*
X68234285Y-76310000D01*
X68091428Y-76381428D01*
X68020000Y-76452857D01*
X67948571Y-76595714D01*
X67948571Y-76952857D01*
X68020000Y-77095714D01*
X68091428Y-77167142D01*
X68234285Y-77238571D01*
X68662857Y-77238571D01*
X68805714Y-77167142D01*
X68877142Y-77095714D01*
X67520000Y-75738571D02*
X67020000Y-77238571D01*
X66520000Y-75738571D01*
X66162857Y-75738571D02*
X65234285Y-75738571D01*
X65734285Y-76310000D01*
X65520000Y-76310000D01*
X65377142Y-76381428D01*
X65305714Y-76452857D01*
X65234285Y-76595714D01*
X65234285Y-76952857D01*
X65305714Y-77095714D01*
X65377142Y-77167142D01*
X65520000Y-77238571D01*
X65948571Y-77238571D01*
X66091428Y-77167142D01*
X66162857Y-77095714D01*
X76588571Y-73218571D02*
X76588571Y-74432857D01*
X76517142Y-74575714D01*
X76445714Y-74647142D01*
X76302857Y-74718571D01*
X76017142Y-74718571D01*
X75874285Y-74647142D01*
X75802857Y-74575714D01*
X75731428Y-74432857D01*
X75731428Y-73218571D01*
X75088571Y-74647142D02*
X74874285Y-74718571D01*
X74517142Y-74718571D01*
X74374285Y-74647142D01*
X74302857Y-74575714D01*
X74231428Y-74432857D01*
X74231428Y-74290000D01*
X74302857Y-74147142D01*
X74374285Y-74075714D01*
X74517142Y-74004285D01*
X74802857Y-73932857D01*
X74945714Y-73861428D01*
X75017142Y-73790000D01*
X75088571Y-73647142D01*
X75088571Y-73504285D01*
X75017142Y-73361428D01*
X74945714Y-73290000D01*
X74802857Y-73218571D01*
X74445714Y-73218571D01*
X74231428Y-73290000D01*
X73088571Y-73932857D02*
X72874285Y-74004285D01*
X72802857Y-74075714D01*
X72731428Y-74218571D01*
X72731428Y-74432857D01*
X72802857Y-74575714D01*
X72874285Y-74647142D01*
X73017142Y-74718571D01*
X73588571Y-74718571D01*
X73588571Y-73218571D01*
X73088571Y-73218571D01*
X72945714Y-73290000D01*
X72874285Y-73361428D01*
X72802857Y-73504285D01*
X72802857Y-73647142D01*
X72874285Y-73790000D01*
X72945714Y-73861428D01*
X73088571Y-73932857D01*
X73588571Y-73932857D01*
X70660000Y-73218571D02*
X70374285Y-73218571D01*
X70231428Y-73290000D01*
X70088571Y-73432857D01*
X70017142Y-73718571D01*
X70017142Y-74218571D01*
X70088571Y-74504285D01*
X70231428Y-74647142D01*
X70374285Y-74718571D01*
X70660000Y-74718571D01*
X70802857Y-74647142D01*
X70945714Y-74504285D01*
X71017142Y-74218571D01*
X71017142Y-73718571D01*
X70945714Y-73432857D01*
X70802857Y-73290000D01*
X70660000Y-73218571D01*
X69588571Y-73218571D02*
X68731428Y-73218571D01*
X69160000Y-74718571D02*
X69160000Y-73218571D01*
X67445714Y-73290000D02*
X67588571Y-73218571D01*
X67802857Y-73218571D01*
X68017142Y-73290000D01*
X68160000Y-73432857D01*
X68231428Y-73575714D01*
X68302857Y-73861428D01*
X68302857Y-74075714D01*
X68231428Y-74361428D01*
X68160000Y-74504285D01*
X68017142Y-74647142D01*
X67802857Y-74718571D01*
X67660000Y-74718571D01*
X67445714Y-74647142D01*
X67374285Y-74575714D01*
X67374285Y-74075714D01*
X67660000Y-74075714D01*
X66731428Y-74718571D02*
X66731428Y-73218571D01*
X66017142Y-74718571D02*
X66017142Y-73218571D01*
X65660000Y-73218571D01*
X65445714Y-73290000D01*
X65302857Y-73432857D01*
X65231428Y-73575714D01*
X65160000Y-73861428D01*
X65160000Y-74075714D01*
X65231428Y-74361428D01*
X65302857Y-74504285D01*
X65445714Y-74647142D01*
X65660000Y-74718571D01*
X66017142Y-74718571D01*
X68332857Y-70550000D02*
X68475714Y-70478571D01*
X68690000Y-70478571D01*
X68904285Y-70550000D01*
X69047142Y-70692857D01*
X69118571Y-70835714D01*
X69190000Y-71121428D01*
X69190000Y-71335714D01*
X69118571Y-71621428D01*
X69047142Y-71764285D01*
X68904285Y-71907142D01*
X68690000Y-71978571D01*
X68547142Y-71978571D01*
X68332857Y-71907142D01*
X68261428Y-71835714D01*
X68261428Y-71335714D01*
X68547142Y-71335714D01*
X67618571Y-71978571D02*
X67618571Y-70478571D01*
X66761428Y-71978571D01*
X66761428Y-70478571D01*
X66047142Y-71978571D02*
X66047142Y-70478571D01*
X65690000Y-70478571D01*
X65475714Y-70550000D01*
X65332857Y-70692857D01*
X65261428Y-70835714D01*
X65190000Y-71121428D01*
X65190000Y-71335714D01*
X65261428Y-71621428D01*
X65332857Y-71764285D01*
X65475714Y-71907142D01*
X65690000Y-71978571D01*
X66047142Y-71978571D01*
D10*
X63565238Y-88731309D02*
X63565238Y-89231309D01*
X63755714Y-89231309D01*
X63803333Y-89207500D01*
X63827142Y-89183690D01*
X63850952Y-89136071D01*
X63850952Y-89064642D01*
X63827142Y-89017023D01*
X63803333Y-88993214D01*
X63755714Y-88969404D01*
X63565238Y-88969404D01*
X64136666Y-88731309D02*
X64089047Y-88755119D01*
X64065238Y-88778928D01*
X64041428Y-88826547D01*
X64041428Y-88969404D01*
X64065238Y-89017023D01*
X64089047Y-89040833D01*
X64136666Y-89064642D01*
X64208095Y-89064642D01*
X64255714Y-89040833D01*
X64279523Y-89017023D01*
X64303333Y-88969404D01*
X64303333Y-88826547D01*
X64279523Y-88778928D01*
X64255714Y-88755119D01*
X64208095Y-88731309D01*
X64136666Y-88731309D01*
X64470000Y-89064642D02*
X64565238Y-88731309D01*
X64660476Y-88969404D01*
X64755714Y-88731309D01*
X64850952Y-89064642D01*
X65231904Y-88755119D02*
X65184285Y-88731309D01*
X65089047Y-88731309D01*
X65041428Y-88755119D01*
X65017619Y-88802738D01*
X65017619Y-88993214D01*
X65041428Y-89040833D01*
X65089047Y-89064642D01*
X65184285Y-89064642D01*
X65231904Y-89040833D01*
X65255714Y-88993214D01*
X65255714Y-88945595D01*
X65017619Y-88897976D01*
X65470000Y-88731309D02*
X65470000Y-89064642D01*
X65470000Y-88969404D02*
X65493809Y-89017023D01*
X65517619Y-89040833D01*
X65565238Y-89064642D01*
X65612857Y-89064642D01*
X66231904Y-88731309D02*
X66184285Y-88755119D01*
X66160476Y-88778928D01*
X66136666Y-88826547D01*
X66136666Y-88969404D01*
X66160476Y-89017023D01*
X66184285Y-89040833D01*
X66231904Y-89064642D01*
X66303333Y-89064642D01*
X66350952Y-89040833D01*
X66374761Y-89017023D01*
X66398571Y-88969404D01*
X66398571Y-88826547D01*
X66374761Y-88778928D01*
X66350952Y-88755119D01*
X66303333Y-88731309D01*
X66231904Y-88731309D01*
X66565238Y-89064642D02*
X66684285Y-88731309D01*
X66803333Y-89064642D01*
X67184285Y-88755119D02*
X67136666Y-88731309D01*
X67041428Y-88731309D01*
X66993809Y-88755119D01*
X66970000Y-88802738D01*
X66970000Y-88993214D01*
X66993809Y-89040833D01*
X67041428Y-89064642D01*
X67136666Y-89064642D01*
X67184285Y-89040833D01*
X67208095Y-88993214D01*
X67208095Y-88945595D01*
X66970000Y-88897976D01*
X67422380Y-88731309D02*
X67422380Y-89064642D01*
X67422380Y-88969404D02*
X67446190Y-89017023D01*
X67470000Y-89040833D01*
X67517619Y-89064642D01*
X67565238Y-89064642D01*
X63934285Y-88356309D02*
X63934285Y-87951547D01*
X63958095Y-87903928D01*
X63981904Y-87880119D01*
X64029523Y-87856309D01*
X64124761Y-87856309D01*
X64172380Y-87880119D01*
X64196190Y-87903928D01*
X64220000Y-87951547D01*
X64220000Y-88356309D01*
X64434285Y-87880119D02*
X64505714Y-87856309D01*
X64624761Y-87856309D01*
X64672380Y-87880119D01*
X64696190Y-87903928D01*
X64720000Y-87951547D01*
X64720000Y-87999166D01*
X64696190Y-88046785D01*
X64672380Y-88070595D01*
X64624761Y-88094404D01*
X64529523Y-88118214D01*
X64481904Y-88142023D01*
X64458095Y-88165833D01*
X64434285Y-88213452D01*
X64434285Y-88261071D01*
X64458095Y-88308690D01*
X64481904Y-88332500D01*
X64529523Y-88356309D01*
X64648571Y-88356309D01*
X64720000Y-88332500D01*
X65100952Y-88118214D02*
X65172380Y-88094404D01*
X65196190Y-88070595D01*
X65220000Y-88022976D01*
X65220000Y-87951547D01*
X65196190Y-87903928D01*
X65172380Y-87880119D01*
X65124761Y-87856309D01*
X64934285Y-87856309D01*
X64934285Y-88356309D01*
X65100952Y-88356309D01*
X65148571Y-88332500D01*
X65172380Y-88308690D01*
X65196190Y-88261071D01*
X65196190Y-88213452D01*
X65172380Y-88165833D01*
X65148571Y-88142023D01*
X65100952Y-88118214D01*
X64934285Y-88118214D01*
X65791428Y-87880119D02*
X65839047Y-87856309D01*
X65934285Y-87856309D01*
X65981904Y-87880119D01*
X66005714Y-87927738D01*
X66005714Y-87951547D01*
X65981904Y-87999166D01*
X65934285Y-88022976D01*
X65862857Y-88022976D01*
X65815238Y-88046785D01*
X65791428Y-88094404D01*
X65791428Y-88118214D01*
X65815238Y-88165833D01*
X65862857Y-88189642D01*
X65934285Y-88189642D01*
X65981904Y-88165833D01*
X66291428Y-87856309D02*
X66243809Y-87880119D01*
X66220000Y-87927738D01*
X66220000Y-88356309D01*
X66696190Y-87856309D02*
X66696190Y-88118214D01*
X66672380Y-88165833D01*
X66624761Y-88189642D01*
X66529523Y-88189642D01*
X66481904Y-88165833D01*
X66696190Y-87880119D02*
X66648571Y-87856309D01*
X66529523Y-87856309D01*
X66481904Y-87880119D01*
X66458095Y-87927738D01*
X66458095Y-87975357D01*
X66481904Y-88022976D01*
X66529523Y-88046785D01*
X66648571Y-88046785D01*
X66696190Y-88070595D01*
X66886666Y-88189642D02*
X67005714Y-87856309D01*
X67124761Y-88189642D01*
X67505714Y-87880119D02*
X67458095Y-87856309D01*
X67362857Y-87856309D01*
X67315238Y-87880119D01*
X67291428Y-87927738D01*
X67291428Y-88118214D01*
X67315238Y-88165833D01*
X67362857Y-88189642D01*
X67458095Y-88189642D01*
X67505714Y-88165833D01*
X67529523Y-88118214D01*
X67529523Y-88070595D01*
X67291428Y-88022976D01*
D11*
X69867142Y-103308571D02*
X69867142Y-104522857D01*
X69795714Y-104665714D01*
X69724285Y-104737142D01*
X69581428Y-104808571D01*
X69295714Y-104808571D01*
X69152857Y-104737142D01*
X69081428Y-104665714D01*
X69010000Y-104522857D01*
X69010000Y-103308571D01*
X68367142Y-104737142D02*
X68152857Y-104808571D01*
X67795714Y-104808571D01*
X67652857Y-104737142D01*
X67581428Y-104665714D01*
X67510000Y-104522857D01*
X67510000Y-104380000D01*
X67581428Y-104237142D01*
X67652857Y-104165714D01*
X67795714Y-104094285D01*
X68081428Y-104022857D01*
X68224285Y-103951428D01*
X68295714Y-103880000D01*
X68367142Y-103737142D01*
X68367142Y-103594285D01*
X68295714Y-103451428D01*
X68224285Y-103380000D01*
X68081428Y-103308571D01*
X67724285Y-103308571D01*
X67510000Y-103380000D01*
X66367142Y-104022857D02*
X66152857Y-104094285D01*
X66081428Y-104165714D01*
X66010000Y-104308571D01*
X66010000Y-104522857D01*
X66081428Y-104665714D01*
X66152857Y-104737142D01*
X66295714Y-104808571D01*
X66867142Y-104808571D01*
X66867142Y-103308571D01*
X66367142Y-103308571D01*
X66224285Y-103380000D01*
X66152857Y-103451428D01*
X66081428Y-103594285D01*
X66081428Y-103737142D01*
X66152857Y-103880000D01*
X66224285Y-103951428D01*
X66367142Y-104022857D01*
X66867142Y-104022857D01*
X65724285Y-104951428D02*
X64581428Y-104951428D01*
X64224285Y-104808571D02*
X64224285Y-103308571D01*
X63581428Y-104808571D02*
X63581428Y-104022857D01*
X63652857Y-103880000D01*
X63795714Y-103808571D01*
X64010000Y-103808571D01*
X64152857Y-103880000D01*
X64224285Y-103951428D01*
X62652857Y-104808571D02*
X62795714Y-104737142D01*
X62867142Y-104665714D01*
X62938571Y-104522857D01*
X62938571Y-104094285D01*
X62867142Y-103951428D01*
X62795714Y-103880000D01*
X62652857Y-103808571D01*
X62438571Y-103808571D01*
X62295714Y-103880000D01*
X62224285Y-103951428D01*
X62152857Y-104094285D01*
X62152857Y-104522857D01*
X62224285Y-104665714D01*
X62295714Y-104737142D01*
X62438571Y-104808571D01*
X62652857Y-104808571D01*
X61581428Y-104737142D02*
X61438571Y-104808571D01*
X61152857Y-104808571D01*
X61010000Y-104737142D01*
X60938571Y-104594285D01*
X60938571Y-104522857D01*
X61010000Y-104380000D01*
X61152857Y-104308571D01*
X61367142Y-104308571D01*
X61510000Y-104237142D01*
X61581428Y-104094285D01*
X61581428Y-104022857D01*
X61510000Y-103880000D01*
X61367142Y-103808571D01*
X61152857Y-103808571D01*
X61010000Y-103880000D01*
X60510000Y-103808571D02*
X59938571Y-103808571D01*
X60295714Y-103308571D02*
X60295714Y-104594285D01*
X60224285Y-104737142D01*
X60081428Y-104808571D01*
X59938571Y-104808571D01*
D12*
X53891428Y-83612380D02*
X53891428Y-84421904D01*
X53843809Y-84517142D01*
X53796190Y-84564761D01*
X53700952Y-84612380D01*
X53510476Y-84612380D01*
X53415238Y-84564761D01*
X53367619Y-84517142D01*
X53320000Y-84421904D01*
X53320000Y-83612380D01*
X52891428Y-84564761D02*
X52748571Y-84612380D01*
X52510476Y-84612380D01*
X52415238Y-84564761D01*
X52367619Y-84517142D01*
X52320000Y-84421904D01*
X52320000Y-84326666D01*
X52367619Y-84231428D01*
X52415238Y-84183809D01*
X52510476Y-84136190D01*
X52700952Y-84088571D01*
X52796190Y-84040952D01*
X52843809Y-83993333D01*
X52891428Y-83898095D01*
X52891428Y-83802857D01*
X52843809Y-83707619D01*
X52796190Y-83660000D01*
X52700952Y-83612380D01*
X52462857Y-83612380D01*
X52320000Y-83660000D01*
X51558095Y-84088571D02*
X51415238Y-84136190D01*
X51367619Y-84183809D01*
X51320000Y-84279047D01*
X51320000Y-84421904D01*
X51367619Y-84517142D01*
X51415238Y-84564761D01*
X51510476Y-84612380D01*
X51891428Y-84612380D01*
X51891428Y-83612380D01*
X51558095Y-83612380D01*
X51462857Y-83660000D01*
X51415238Y-83707619D01*
X51367619Y-83802857D01*
X51367619Y-83898095D01*
X51415238Y-83993333D01*
X51462857Y-84040952D01*
X51558095Y-84088571D01*
X51891428Y-84088571D01*
X51129523Y-84707619D02*
X50367619Y-84707619D01*
X50177142Y-84564761D02*
X50081904Y-84612380D01*
X49891428Y-84612380D01*
X49796190Y-84564761D01*
X49748571Y-84469523D01*
X49748571Y-84421904D01*
X49796190Y-84326666D01*
X49891428Y-84279047D01*
X50034285Y-84279047D01*
X50129523Y-84231428D01*
X50177142Y-84136190D01*
X50177142Y-84088571D01*
X50129523Y-83993333D01*
X50034285Y-83945714D01*
X49891428Y-83945714D01*
X49796190Y-83993333D01*
X49177142Y-84612380D02*
X49272380Y-84564761D01*
X49320000Y-84469523D01*
X49320000Y-83612380D01*
X48367619Y-84612380D02*
X48367619Y-84088571D01*
X48415238Y-83993333D01*
X48510476Y-83945714D01*
X48700952Y-83945714D01*
X48796190Y-83993333D01*
X48367619Y-84564761D02*
X48462857Y-84612380D01*
X48700952Y-84612380D01*
X48796190Y-84564761D01*
X48843809Y-84469523D01*
X48843809Y-84374285D01*
X48796190Y-84279047D01*
X48700952Y-84231428D01*
X48462857Y-84231428D01*
X48367619Y-84183809D01*
X47986666Y-83945714D02*
X47748571Y-84612380D01*
X47510476Y-83945714D01*
X46748571Y-84564761D02*
X46843809Y-84612380D01*
X47034285Y-84612380D01*
X47129523Y-84564761D01*
X47177142Y-84469523D01*
X47177142Y-84088571D01*
X47129523Y-83993333D01*
X47034285Y-83945714D01*
X46843809Y-83945714D01*
X46748571Y-83993333D01*
X46700952Y-84088571D01*
X46700952Y-84183809D01*
X47177142Y-84279047D01*
D11*
X55567142Y-55558571D02*
X55567142Y-54058571D01*
X55567142Y-54772857D02*
X54710000Y-54772857D01*
X54710000Y-55558571D02*
X54710000Y-54058571D01*
X53995714Y-55558571D02*
X53995714Y-54058571D01*
X53638571Y-54058571D01*
X53424285Y-54130000D01*
X53281428Y-54272857D01*
X53210000Y-54415714D01*
X53138571Y-54701428D01*
X53138571Y-54915714D01*
X53210000Y-55201428D01*
X53281428Y-55344285D01*
X53424285Y-55487142D01*
X53638571Y-55558571D01*
X53995714Y-55558571D01*
X52495714Y-55558571D02*
X52495714Y-54058571D01*
X51995714Y-55130000D01*
X51495714Y-54058571D01*
X51495714Y-55558571D01*
X50781428Y-55558571D02*
X50781428Y-54058571D01*
X50424285Y-55701428D02*
X49281428Y-55701428D01*
X48638571Y-54058571D02*
X48352857Y-54058571D01*
X48210000Y-54130000D01*
X48067142Y-54272857D01*
X47995714Y-54558571D01*
X47995714Y-55058571D01*
X48067142Y-55344285D01*
X48210000Y-55487142D01*
X48352857Y-55558571D01*
X48638571Y-55558571D01*
X48781428Y-55487142D01*
X48924285Y-55344285D01*
X48995714Y-55058571D01*
X48995714Y-54558571D01*
X48924285Y-54272857D01*
X48781428Y-54130000D01*
X48638571Y-54058571D01*
X47352857Y-54058571D02*
X47352857Y-55272857D01*
X47281428Y-55415714D01*
X47210000Y-55487142D01*
X47067142Y-55558571D01*
X46781428Y-55558571D01*
X46638571Y-55487142D01*
X46567142Y-55415714D01*
X46495714Y-55272857D01*
X46495714Y-54058571D01*
X45995714Y-54058571D02*
X45138571Y-54058571D01*
X45567142Y-55558571D02*
X45567142Y-54058571D01*
D10*
X142438571Y-43083809D02*
X142462380Y-43060000D01*
X142486190Y-42988571D01*
X142486190Y-42940952D01*
X142462380Y-42869523D01*
X142414761Y-42821904D01*
X142367142Y-42798095D01*
X142271904Y-42774285D01*
X142200476Y-42774285D01*
X142105238Y-42798095D01*
X142057619Y-42821904D01*
X142010000Y-42869523D01*
X141986190Y-42940952D01*
X141986190Y-42988571D01*
X142010000Y-43060000D01*
X142033809Y-43083809D01*
X142486190Y-43298095D02*
X141986190Y-43298095D01*
X141986190Y-43417142D01*
X142010000Y-43488571D01*
X142057619Y-43536190D01*
X142105238Y-43560000D01*
X142200476Y-43583809D01*
X142271904Y-43583809D01*
X142367142Y-43560000D01*
X142414761Y-43536190D01*
X142462380Y-43488571D01*
X142486190Y-43417142D01*
X142486190Y-43298095D01*
X142486190Y-44060000D02*
X142486190Y-43774285D01*
X142486190Y-43917142D02*
X141986190Y-43917142D01*
X142057619Y-43869523D01*
X142105238Y-43821904D01*
X142129047Y-43774285D01*
X142533809Y-44155238D02*
X142533809Y-44536190D01*
X142462380Y-44631428D02*
X142486190Y-44702857D01*
X142486190Y-44821904D01*
X142462380Y-44869523D01*
X142438571Y-44893333D01*
X142390952Y-44917142D01*
X142343333Y-44917142D01*
X142295714Y-44893333D01*
X142271904Y-44869523D01*
X142248095Y-44821904D01*
X142224285Y-44726666D01*
X142200476Y-44679047D01*
X142176666Y-44655238D01*
X142129047Y-44631428D01*
X142081428Y-44631428D01*
X142033809Y-44655238D01*
X142010000Y-44679047D01*
X141986190Y-44726666D01*
X141986190Y-44845714D01*
X142010000Y-44917142D01*
X142486190Y-45131428D02*
X141986190Y-45131428D01*
X141986190Y-45250476D01*
X142010000Y-45321904D01*
X142057619Y-45369523D01*
X142105238Y-45393333D01*
X142200476Y-45417142D01*
X142271904Y-45417142D01*
X142367142Y-45393333D01*
X142414761Y-45369523D01*
X142462380Y-45321904D01*
X142486190Y-45250476D01*
X142486190Y-45131428D01*
X142343333Y-45607619D02*
X142343333Y-45845714D01*
X142486190Y-45560000D02*
X141986190Y-45726666D01*
X142486190Y-45893333D01*
X139798571Y-43035714D02*
X139822380Y-43011904D01*
X139846190Y-42940476D01*
X139846190Y-42892857D01*
X139822380Y-42821428D01*
X139774761Y-42773809D01*
X139727142Y-42750000D01*
X139631904Y-42726190D01*
X139560476Y-42726190D01*
X139465238Y-42750000D01*
X139417619Y-42773809D01*
X139370000Y-42821428D01*
X139346190Y-42892857D01*
X139346190Y-42940476D01*
X139370000Y-43011904D01*
X139393809Y-43035714D01*
X139846190Y-43250000D02*
X139346190Y-43250000D01*
X139346190Y-43369047D01*
X139370000Y-43440476D01*
X139417619Y-43488095D01*
X139465238Y-43511904D01*
X139560476Y-43535714D01*
X139631904Y-43535714D01*
X139727142Y-43511904D01*
X139774761Y-43488095D01*
X139822380Y-43440476D01*
X139846190Y-43369047D01*
X139846190Y-43250000D01*
X139846190Y-44011904D02*
X139846190Y-43726190D01*
X139846190Y-43869047D02*
X139346190Y-43869047D01*
X139417619Y-43821428D01*
X139465238Y-43773809D01*
X139489047Y-43726190D01*
X139893809Y-44107142D02*
X139893809Y-44488095D01*
X139822380Y-44583333D02*
X139846190Y-44654761D01*
X139846190Y-44773809D01*
X139822380Y-44821428D01*
X139798571Y-44845238D01*
X139750952Y-44869047D01*
X139703333Y-44869047D01*
X139655714Y-44845238D01*
X139631904Y-44821428D01*
X139608095Y-44773809D01*
X139584285Y-44678571D01*
X139560476Y-44630952D01*
X139536666Y-44607142D01*
X139489047Y-44583333D01*
X139441428Y-44583333D01*
X139393809Y-44607142D01*
X139370000Y-44630952D01*
X139346190Y-44678571D01*
X139346190Y-44797619D01*
X139370000Y-44869047D01*
X139798571Y-45369047D02*
X139822380Y-45345238D01*
X139846190Y-45273809D01*
X139846190Y-45226190D01*
X139822380Y-45154761D01*
X139774761Y-45107142D01*
X139727142Y-45083333D01*
X139631904Y-45059523D01*
X139560476Y-45059523D01*
X139465238Y-45083333D01*
X139417619Y-45107142D01*
X139370000Y-45154761D01*
X139346190Y-45226190D01*
X139346190Y-45273809D01*
X139370000Y-45345238D01*
X139393809Y-45369047D01*
X139846190Y-45821428D02*
X139846190Y-45583333D01*
X139346190Y-45583333D01*
X137038571Y-42953809D02*
X137062380Y-42930000D01*
X137086190Y-42858571D01*
X137086190Y-42810952D01*
X137062380Y-42739523D01*
X137014761Y-42691904D01*
X136967142Y-42668095D01*
X136871904Y-42644285D01*
X136800476Y-42644285D01*
X136705238Y-42668095D01*
X136657619Y-42691904D01*
X136610000Y-42739523D01*
X136586190Y-42810952D01*
X136586190Y-42858571D01*
X136610000Y-42930000D01*
X136633809Y-42953809D01*
X136943333Y-43144285D02*
X136943333Y-43382380D01*
X137086190Y-43096666D02*
X136586190Y-43263333D01*
X137086190Y-43430000D01*
X137086190Y-43596666D02*
X136586190Y-43596666D01*
X136943333Y-43763333D01*
X136586190Y-43930000D01*
X137086190Y-43930000D01*
X137086190Y-44430000D02*
X137086190Y-44144285D01*
X137086190Y-44287142D02*
X136586190Y-44287142D01*
X136657619Y-44239523D01*
X136705238Y-44191904D01*
X136729047Y-44144285D01*
X137133809Y-44525238D02*
X137133809Y-44906190D01*
X137038571Y-45310952D02*
X137062380Y-45287142D01*
X137086190Y-45215714D01*
X137086190Y-45168095D01*
X137062380Y-45096666D01*
X137014761Y-45049047D01*
X136967142Y-45025238D01*
X136871904Y-45001428D01*
X136800476Y-45001428D01*
X136705238Y-45025238D01*
X136657619Y-45049047D01*
X136610000Y-45096666D01*
X136586190Y-45168095D01*
X136586190Y-45215714D01*
X136610000Y-45287142D01*
X136633809Y-45310952D01*
X137086190Y-45763333D02*
X137086190Y-45525238D01*
X136586190Y-45525238D01*
X137086190Y-45930000D02*
X136586190Y-45930000D01*
X137086190Y-46215714D02*
X136800476Y-46001428D01*
X136586190Y-46215714D02*
X136871904Y-45930000D01*
X134838571Y-43077142D02*
X134862380Y-43053333D01*
X134886190Y-42981904D01*
X134886190Y-42934285D01*
X134862380Y-42862857D01*
X134814761Y-42815238D01*
X134767142Y-42791428D01*
X134671904Y-42767619D01*
X134600476Y-42767619D01*
X134505238Y-42791428D01*
X134457619Y-42815238D01*
X134410000Y-42862857D01*
X134386190Y-42934285D01*
X134386190Y-42981904D01*
X134410000Y-43053333D01*
X134433809Y-43077142D01*
X134743333Y-43267619D02*
X134743333Y-43505714D01*
X134886190Y-43220000D02*
X134386190Y-43386666D01*
X134886190Y-43553333D01*
X134886190Y-43720000D02*
X134386190Y-43720000D01*
X134743333Y-43886666D01*
X134386190Y-44053333D01*
X134886190Y-44053333D01*
X134886190Y-44553333D02*
X134886190Y-44267619D01*
X134886190Y-44410476D02*
X134386190Y-44410476D01*
X134457619Y-44362857D01*
X134505238Y-44315238D01*
X134529047Y-44267619D01*
X134933809Y-44648571D02*
X134933809Y-45029523D01*
X134886190Y-45148571D02*
X134386190Y-45148571D01*
X134386190Y-45481904D02*
X134386190Y-45577142D01*
X134410000Y-45624761D01*
X134457619Y-45672380D01*
X134552857Y-45696190D01*
X134719523Y-45696190D01*
X134814761Y-45672380D01*
X134862380Y-45624761D01*
X134886190Y-45577142D01*
X134886190Y-45481904D01*
X134862380Y-45434285D01*
X134814761Y-45386666D01*
X134719523Y-45362857D01*
X134552857Y-45362857D01*
X134457619Y-45386666D01*
X134410000Y-45434285D01*
X134386190Y-45481904D01*
X134386190Y-46005714D02*
X134386190Y-46053333D01*
X134410000Y-46100952D01*
X134433809Y-46124761D01*
X134481428Y-46148571D01*
X134576666Y-46172380D01*
X134695714Y-46172380D01*
X134790952Y-46148571D01*
X134838571Y-46124761D01*
X134862380Y-46100952D01*
X134886190Y-46053333D01*
X134886190Y-46005714D01*
X134862380Y-45958095D01*
X134838571Y-45934285D01*
X134790952Y-45910476D01*
X134695714Y-45886666D01*
X134576666Y-45886666D01*
X134481428Y-45910476D01*
X134433809Y-45934285D01*
X134410000Y-45958095D01*
X134386190Y-46005714D01*
X132268571Y-43043809D02*
X132292380Y-43020000D01*
X132316190Y-42948571D01*
X132316190Y-42900952D01*
X132292380Y-42829523D01*
X132244761Y-42781904D01*
X132197142Y-42758095D01*
X132101904Y-42734285D01*
X132030476Y-42734285D01*
X131935238Y-42758095D01*
X131887619Y-42781904D01*
X131840000Y-42829523D01*
X131816190Y-42900952D01*
X131816190Y-42948571D01*
X131840000Y-43020000D01*
X131863809Y-43043809D01*
X132316190Y-43258095D02*
X131816190Y-43258095D01*
X131816190Y-43377142D01*
X131840000Y-43448571D01*
X131887619Y-43496190D01*
X131935238Y-43520000D01*
X132030476Y-43543809D01*
X132101904Y-43543809D01*
X132197142Y-43520000D01*
X132244761Y-43496190D01*
X132292380Y-43448571D01*
X132316190Y-43377142D01*
X132316190Y-43258095D01*
X131816190Y-43853333D02*
X131816190Y-43900952D01*
X131840000Y-43948571D01*
X131863809Y-43972380D01*
X131911428Y-43996190D01*
X132006666Y-44020000D01*
X132125714Y-44020000D01*
X132220952Y-43996190D01*
X132268571Y-43972380D01*
X132292380Y-43948571D01*
X132316190Y-43900952D01*
X132316190Y-43853333D01*
X132292380Y-43805714D01*
X132268571Y-43781904D01*
X132220952Y-43758095D01*
X132125714Y-43734285D01*
X132006666Y-43734285D01*
X131911428Y-43758095D01*
X131863809Y-43781904D01*
X131840000Y-43805714D01*
X131816190Y-43853333D01*
X132363809Y-44115238D02*
X132363809Y-44496190D01*
X132292380Y-44591428D02*
X132316190Y-44662857D01*
X132316190Y-44781904D01*
X132292380Y-44829523D01*
X132268571Y-44853333D01*
X132220952Y-44877142D01*
X132173333Y-44877142D01*
X132125714Y-44853333D01*
X132101904Y-44829523D01*
X132078095Y-44781904D01*
X132054285Y-44686666D01*
X132030476Y-44639047D01*
X132006666Y-44615238D01*
X131959047Y-44591428D01*
X131911428Y-44591428D01*
X131863809Y-44615238D01*
X131840000Y-44639047D01*
X131816190Y-44686666D01*
X131816190Y-44805714D01*
X131840000Y-44877142D01*
X132316190Y-45091428D02*
X131816190Y-45091428D01*
X131816190Y-45210476D01*
X131840000Y-45281904D01*
X131887619Y-45329523D01*
X131935238Y-45353333D01*
X132030476Y-45377142D01*
X132101904Y-45377142D01*
X132197142Y-45353333D01*
X132244761Y-45329523D01*
X132292380Y-45281904D01*
X132316190Y-45210476D01*
X132316190Y-45091428D01*
X132173333Y-45567619D02*
X132173333Y-45805714D01*
X132316190Y-45520000D02*
X131816190Y-45686666D01*
X132316190Y-45853333D01*
X129808571Y-43035714D02*
X129832380Y-43011904D01*
X129856190Y-42940476D01*
X129856190Y-42892857D01*
X129832380Y-42821428D01*
X129784761Y-42773809D01*
X129737142Y-42750000D01*
X129641904Y-42726190D01*
X129570476Y-42726190D01*
X129475238Y-42750000D01*
X129427619Y-42773809D01*
X129380000Y-42821428D01*
X129356190Y-42892857D01*
X129356190Y-42940476D01*
X129380000Y-43011904D01*
X129403809Y-43035714D01*
X129856190Y-43250000D02*
X129356190Y-43250000D01*
X129356190Y-43369047D01*
X129380000Y-43440476D01*
X129427619Y-43488095D01*
X129475238Y-43511904D01*
X129570476Y-43535714D01*
X129641904Y-43535714D01*
X129737142Y-43511904D01*
X129784761Y-43488095D01*
X129832380Y-43440476D01*
X129856190Y-43369047D01*
X129856190Y-43250000D01*
X129356190Y-43845238D02*
X129356190Y-43892857D01*
X129380000Y-43940476D01*
X129403809Y-43964285D01*
X129451428Y-43988095D01*
X129546666Y-44011904D01*
X129665714Y-44011904D01*
X129760952Y-43988095D01*
X129808571Y-43964285D01*
X129832380Y-43940476D01*
X129856190Y-43892857D01*
X129856190Y-43845238D01*
X129832380Y-43797619D01*
X129808571Y-43773809D01*
X129760952Y-43750000D01*
X129665714Y-43726190D01*
X129546666Y-43726190D01*
X129451428Y-43750000D01*
X129403809Y-43773809D01*
X129380000Y-43797619D01*
X129356190Y-43845238D01*
X129903809Y-44107142D02*
X129903809Y-44488095D01*
X129832380Y-44583333D02*
X129856190Y-44654761D01*
X129856190Y-44773809D01*
X129832380Y-44821428D01*
X129808571Y-44845238D01*
X129760952Y-44869047D01*
X129713333Y-44869047D01*
X129665714Y-44845238D01*
X129641904Y-44821428D01*
X129618095Y-44773809D01*
X129594285Y-44678571D01*
X129570476Y-44630952D01*
X129546666Y-44607142D01*
X129499047Y-44583333D01*
X129451428Y-44583333D01*
X129403809Y-44607142D01*
X129380000Y-44630952D01*
X129356190Y-44678571D01*
X129356190Y-44797619D01*
X129380000Y-44869047D01*
X129808571Y-45369047D02*
X129832380Y-45345238D01*
X129856190Y-45273809D01*
X129856190Y-45226190D01*
X129832380Y-45154761D01*
X129784761Y-45107142D01*
X129737142Y-45083333D01*
X129641904Y-45059523D01*
X129570476Y-45059523D01*
X129475238Y-45083333D01*
X129427619Y-45107142D01*
X129380000Y-45154761D01*
X129356190Y-45226190D01*
X129356190Y-45273809D01*
X129380000Y-45345238D01*
X129403809Y-45369047D01*
X129856190Y-45821428D02*
X129856190Y-45583333D01*
X129356190Y-45583333D01*
X127248571Y-42976190D02*
X127272380Y-42952380D01*
X127296190Y-42880952D01*
X127296190Y-42833333D01*
X127272380Y-42761904D01*
X127224761Y-42714285D01*
X127177142Y-42690476D01*
X127081904Y-42666666D01*
X127010476Y-42666666D01*
X126915238Y-42690476D01*
X126867619Y-42714285D01*
X126820000Y-42761904D01*
X126796190Y-42833333D01*
X126796190Y-42880952D01*
X126820000Y-42952380D01*
X126843809Y-42976190D01*
X127153333Y-43166666D02*
X127153333Y-43404761D01*
X127296190Y-43119047D02*
X126796190Y-43285714D01*
X127296190Y-43452380D01*
X127296190Y-43619047D02*
X126796190Y-43619047D01*
X127153333Y-43785714D01*
X126796190Y-43952380D01*
X127296190Y-43952380D01*
X126796190Y-44285714D02*
X126796190Y-44333333D01*
X126820000Y-44380952D01*
X126843809Y-44404761D01*
X126891428Y-44428571D01*
X126986666Y-44452380D01*
X127105714Y-44452380D01*
X127200952Y-44428571D01*
X127248571Y-44404761D01*
X127272380Y-44380952D01*
X127296190Y-44333333D01*
X127296190Y-44285714D01*
X127272380Y-44238095D01*
X127248571Y-44214285D01*
X127200952Y-44190476D01*
X127105714Y-44166666D01*
X126986666Y-44166666D01*
X126891428Y-44190476D01*
X126843809Y-44214285D01*
X126820000Y-44238095D01*
X126796190Y-44285714D01*
X127343809Y-44547619D02*
X127343809Y-44928571D01*
X127248571Y-45333333D02*
X127272380Y-45309523D01*
X127296190Y-45238095D01*
X127296190Y-45190476D01*
X127272380Y-45119047D01*
X127224761Y-45071428D01*
X127177142Y-45047619D01*
X127081904Y-45023809D01*
X127010476Y-45023809D01*
X126915238Y-45047619D01*
X126867619Y-45071428D01*
X126820000Y-45119047D01*
X126796190Y-45190476D01*
X126796190Y-45238095D01*
X126820000Y-45309523D01*
X126843809Y-45333333D01*
X127296190Y-45547619D02*
X126796190Y-45547619D01*
X127296190Y-45833333D02*
X127010476Y-45619047D01*
X126796190Y-45833333D02*
X127081904Y-45547619D01*
X124808571Y-42957142D02*
X124832380Y-42933333D01*
X124856190Y-42861904D01*
X124856190Y-42814285D01*
X124832380Y-42742857D01*
X124784761Y-42695238D01*
X124737142Y-42671428D01*
X124641904Y-42647619D01*
X124570476Y-42647619D01*
X124475238Y-42671428D01*
X124427619Y-42695238D01*
X124380000Y-42742857D01*
X124356190Y-42814285D01*
X124356190Y-42861904D01*
X124380000Y-42933333D01*
X124403809Y-42957142D01*
X124713333Y-43147619D02*
X124713333Y-43385714D01*
X124856190Y-43100000D02*
X124356190Y-43266666D01*
X124856190Y-43433333D01*
X124856190Y-43600000D02*
X124356190Y-43600000D01*
X124713333Y-43766666D01*
X124356190Y-43933333D01*
X124856190Y-43933333D01*
X124356190Y-44266666D02*
X124356190Y-44314285D01*
X124380000Y-44361904D01*
X124403809Y-44385714D01*
X124451428Y-44409523D01*
X124546666Y-44433333D01*
X124665714Y-44433333D01*
X124760952Y-44409523D01*
X124808571Y-44385714D01*
X124832380Y-44361904D01*
X124856190Y-44314285D01*
X124856190Y-44266666D01*
X124832380Y-44219047D01*
X124808571Y-44195238D01*
X124760952Y-44171428D01*
X124665714Y-44147619D01*
X124546666Y-44147619D01*
X124451428Y-44171428D01*
X124403809Y-44195238D01*
X124380000Y-44219047D01*
X124356190Y-44266666D01*
X124903809Y-44528571D02*
X124903809Y-44909523D01*
X124856190Y-45028571D02*
X124356190Y-45028571D01*
X124356190Y-45361904D02*
X124356190Y-45457142D01*
X124380000Y-45504761D01*
X124427619Y-45552380D01*
X124522857Y-45576190D01*
X124689523Y-45576190D01*
X124784761Y-45552380D01*
X124832380Y-45504761D01*
X124856190Y-45457142D01*
X124856190Y-45361904D01*
X124832380Y-45314285D01*
X124784761Y-45266666D01*
X124689523Y-45242857D01*
X124522857Y-45242857D01*
X124427619Y-45266666D01*
X124380000Y-45314285D01*
X124356190Y-45361904D01*
X124356190Y-45885714D02*
X124356190Y-45933333D01*
X124380000Y-45980952D01*
X124403809Y-46004761D01*
X124451428Y-46028571D01*
X124546666Y-46052380D01*
X124665714Y-46052380D01*
X124760952Y-46028571D01*
X124808571Y-46004761D01*
X124832380Y-45980952D01*
X124856190Y-45933333D01*
X124856190Y-45885714D01*
X124832380Y-45838095D01*
X124808571Y-45814285D01*
X124760952Y-45790476D01*
X124665714Y-45766666D01*
X124546666Y-45766666D01*
X124451428Y-45790476D01*
X124403809Y-45814285D01*
X124380000Y-45838095D01*
X124356190Y-45885714D01*
D13*
X111334285Y-42940714D02*
X110905714Y-42940714D01*
X111120000Y-42940714D02*
X111120000Y-43690714D01*
X111048571Y-43583571D01*
X110977142Y-43512142D01*
X110905714Y-43476428D01*
X111620000Y-43619285D02*
X111655714Y-43655000D01*
X111727142Y-43690714D01*
X111905714Y-43690714D01*
X111977142Y-43655000D01*
X112012857Y-43619285D01*
X112048571Y-43547857D01*
X112048571Y-43476428D01*
X112012857Y-43369285D01*
X111584285Y-42940714D01*
X112048571Y-42940714D01*
X113370000Y-43012142D02*
X113334285Y-42976428D01*
X113227142Y-42940714D01*
X113155714Y-42940714D01*
X113048571Y-42976428D01*
X112977142Y-43047857D01*
X112941428Y-43119285D01*
X112905714Y-43262142D01*
X112905714Y-43369285D01*
X112941428Y-43512142D01*
X112977142Y-43583571D01*
X113048571Y-43655000D01*
X113155714Y-43690714D01*
X113227142Y-43690714D01*
X113334285Y-43655000D01*
X113370000Y-43619285D01*
X114048571Y-42940714D02*
X113691428Y-42940714D01*
X113691428Y-43690714D01*
X114298571Y-42940714D02*
X114298571Y-43690714D01*
X114727142Y-42940714D02*
X114405714Y-43369285D01*
X114727142Y-43690714D02*
X114298571Y-43262142D01*
X115619999Y-42940714D02*
X115619999Y-43690714D01*
X115869999Y-43155000D01*
X116119999Y-43690714D01*
X116119999Y-42940714D01*
X116620000Y-43690714D02*
X116762857Y-43690714D01*
X116834285Y-43655000D01*
X116905714Y-43583571D01*
X116941428Y-43440714D01*
X116941428Y-43190714D01*
X116905714Y-43047857D01*
X116834285Y-42976428D01*
X116762857Y-42940714D01*
X116620000Y-42940714D01*
X116548571Y-42976428D01*
X116477142Y-43047857D01*
X116441428Y-43190714D01*
X116441428Y-43440714D01*
X116477142Y-43583571D01*
X116548571Y-43655000D01*
X116620000Y-43690714D01*
X117227142Y-42976428D02*
X117334285Y-42940714D01*
X117512857Y-42940714D01*
X117584285Y-42976428D01*
X117619999Y-43012142D01*
X117655714Y-43083571D01*
X117655714Y-43155000D01*
X117619999Y-43226428D01*
X117584285Y-43262142D01*
X117512857Y-43297857D01*
X117369999Y-43333571D01*
X117298571Y-43369285D01*
X117262857Y-43405000D01*
X117227142Y-43476428D01*
X117227142Y-43547857D01*
X117262857Y-43619285D01*
X117298571Y-43655000D01*
X117369999Y-43690714D01*
X117548571Y-43690714D01*
X117655714Y-43655000D01*
X117977142Y-42940714D02*
X117977142Y-43690714D01*
X118905714Y-42940714D02*
X118905714Y-43690714D01*
X119155714Y-43155000D01*
X119405714Y-43690714D01*
X119405714Y-42940714D01*
X119762857Y-42940714D02*
X119762857Y-43690714D01*
X120084285Y-42976428D02*
X120191428Y-42940714D01*
X120369999Y-42940714D01*
X120441428Y-42976428D01*
X120477142Y-43012142D01*
X120512857Y-43083571D01*
X120512857Y-43155000D01*
X120477142Y-43226428D01*
X120441428Y-43262142D01*
X120369999Y-43297857D01*
X120227142Y-43333571D01*
X120155714Y-43369285D01*
X120119999Y-43405000D01*
X120084285Y-43476428D01*
X120084285Y-43547857D01*
X120119999Y-43619285D01*
X120155714Y-43655000D01*
X120227142Y-43690714D01*
X120405714Y-43690714D01*
X120512857Y-43655000D01*
X120977142Y-43690714D02*
X121119999Y-43690714D01*
X121191428Y-43655000D01*
X121262857Y-43583571D01*
X121298571Y-43440714D01*
X121298571Y-43190714D01*
X121262857Y-43047857D01*
X121191428Y-42976428D01*
X121119999Y-42940714D01*
X120977142Y-42940714D01*
X120905714Y-42976428D01*
X120834285Y-43047857D01*
X120798571Y-43190714D01*
X120798571Y-43440714D01*
X120834285Y-43583571D01*
X120905714Y-43655000D01*
X120977142Y-43690714D01*
X122619999Y-43012142D02*
X122584285Y-42976428D01*
X122477142Y-42940714D01*
X122405714Y-42940714D01*
X122298571Y-42976428D01*
X122227142Y-43047857D01*
X122191428Y-43119285D01*
X122155714Y-43262142D01*
X122155714Y-43369285D01*
X122191428Y-43512142D01*
X122227142Y-43583571D01*
X122298571Y-43655000D01*
X122405714Y-43690714D01*
X122477142Y-43690714D01*
X122584285Y-43655000D01*
X122619999Y-43619285D01*
X122905714Y-42976428D02*
X123012857Y-42940714D01*
X123191428Y-42940714D01*
X123262857Y-42976428D01*
X123298571Y-43012142D01*
X123334285Y-43083571D01*
X123334285Y-43155000D01*
X123298571Y-43226428D01*
X123262857Y-43262142D01*
X123191428Y-43297857D01*
X123048571Y-43333571D01*
X122977142Y-43369285D01*
X122941428Y-43405000D01*
X122905714Y-43476428D01*
X122905714Y-43547857D01*
X122941428Y-43619285D01*
X122977142Y-43655000D01*
X123048571Y-43690714D01*
X123227142Y-43690714D01*
X123334285Y-43655000D01*
X93916428Y-43080714D02*
X93487857Y-43080714D01*
X93702142Y-43080714D02*
X93702142Y-43830714D01*
X93630714Y-43723571D01*
X93559285Y-43652142D01*
X93487857Y-43616428D01*
X94273571Y-43080714D02*
X94416428Y-43080714D01*
X94487857Y-43116428D01*
X94523571Y-43152142D01*
X94595000Y-43259285D01*
X94630714Y-43402142D01*
X94630714Y-43687857D01*
X94595000Y-43759285D01*
X94559285Y-43795000D01*
X94487857Y-43830714D01*
X94345000Y-43830714D01*
X94273571Y-43795000D01*
X94237857Y-43759285D01*
X94202142Y-43687857D01*
X94202142Y-43509285D01*
X94237857Y-43437857D01*
X94273571Y-43402142D01*
X94345000Y-43366428D01*
X94487857Y-43366428D01*
X94559285Y-43402142D01*
X94595000Y-43437857D01*
X94630714Y-43509285D01*
X96487857Y-43080714D02*
X96059285Y-43080714D01*
X96273571Y-43080714D02*
X96273571Y-43830714D01*
X96202142Y-43723571D01*
X96130714Y-43652142D01*
X96059285Y-43616428D01*
X96916428Y-43509285D02*
X96845000Y-43545000D01*
X96809285Y-43580714D01*
X96773571Y-43652142D01*
X96773571Y-43687857D01*
X96809285Y-43759285D01*
X96845000Y-43795000D01*
X96916428Y-43830714D01*
X97059285Y-43830714D01*
X97130714Y-43795000D01*
X97166428Y-43759285D01*
X97202142Y-43687857D01*
X97202142Y-43652142D01*
X97166428Y-43580714D01*
X97130714Y-43545000D01*
X97059285Y-43509285D01*
X96916428Y-43509285D01*
X96845000Y-43473571D01*
X96809285Y-43437857D01*
X96773571Y-43366428D01*
X96773571Y-43223571D01*
X96809285Y-43152142D01*
X96845000Y-43116428D01*
X96916428Y-43080714D01*
X97059285Y-43080714D01*
X97130714Y-43116428D01*
X97166428Y-43152142D01*
X97202142Y-43223571D01*
X97202142Y-43366428D01*
X97166428Y-43437857D01*
X97130714Y-43473571D01*
X97059285Y-43509285D01*
X99059285Y-43080714D02*
X98630714Y-43080714D01*
X98845000Y-43080714D02*
X98845000Y-43830714D01*
X98773571Y-43723571D01*
X98702142Y-43652142D01*
X98630714Y-43616428D01*
X99309285Y-43830714D02*
X99809285Y-43830714D01*
X99487857Y-43080714D01*
X101630714Y-43080714D02*
X101202142Y-43080714D01*
X101416428Y-43080714D02*
X101416428Y-43830714D01*
X101345000Y-43723571D01*
X101273571Y-43652142D01*
X101202142Y-43616428D01*
X102273571Y-43830714D02*
X102130714Y-43830714D01*
X102059285Y-43795000D01*
X102023571Y-43759285D01*
X101952142Y-43652142D01*
X101916428Y-43509285D01*
X101916428Y-43223571D01*
X101952142Y-43152142D01*
X101987857Y-43116428D01*
X102059285Y-43080714D01*
X102202142Y-43080714D01*
X102273571Y-43116428D01*
X102309285Y-43152142D01*
X102345000Y-43223571D01*
X102345000Y-43402142D01*
X102309285Y-43473571D01*
X102273571Y-43509285D01*
X102202142Y-43545000D01*
X102059285Y-43545000D01*
X101987857Y-43509285D01*
X101952142Y-43473571D01*
X101916428Y-43402142D01*
X104237857Y-43080714D02*
X103987857Y-43437857D01*
X103809285Y-43080714D02*
X103809285Y-43830714D01*
X104095000Y-43830714D01*
X104166428Y-43795000D01*
X104202142Y-43759285D01*
X104237857Y-43687857D01*
X104237857Y-43580714D01*
X104202142Y-43509285D01*
X104166428Y-43473571D01*
X104095000Y-43437857D01*
X103809285Y-43437857D01*
X104487857Y-43830714D02*
X104987857Y-43080714D01*
X104987857Y-43830714D02*
X104487857Y-43080714D01*
X106309285Y-43830714D02*
X106737857Y-43830714D01*
X106523571Y-43080714D02*
X106523571Y-43830714D01*
X106916428Y-43830714D02*
X107416428Y-43080714D01*
X107416428Y-43830714D02*
X106916428Y-43080714D01*
X109237857Y-43080714D02*
X108809285Y-43080714D01*
X109023571Y-43080714D02*
X109023571Y-43830714D01*
X108952142Y-43723571D01*
X108880714Y-43652142D01*
X108809285Y-43616428D01*
X109487857Y-43830714D02*
X109952142Y-43830714D01*
X109702142Y-43545000D01*
X109809285Y-43545000D01*
X109880714Y-43509285D01*
X109916428Y-43473571D01*
X109952142Y-43402142D01*
X109952142Y-43223571D01*
X109916428Y-43152142D01*
X109880714Y-43116428D01*
X109809285Y-43080714D01*
X109595000Y-43080714D01*
X109523571Y-43116428D01*
X109487857Y-43152142D01*
X75854285Y-43739285D02*
X75890000Y-43775000D01*
X75961428Y-43810714D01*
X76140000Y-43810714D01*
X76211428Y-43775000D01*
X76247142Y-43739285D01*
X76282857Y-43667857D01*
X76282857Y-43596428D01*
X76247142Y-43489285D01*
X75818571Y-43060714D01*
X76282857Y-43060714D01*
X76925714Y-43810714D02*
X76782857Y-43810714D01*
X76711428Y-43775000D01*
X76675714Y-43739285D01*
X76604285Y-43632142D01*
X76568571Y-43489285D01*
X76568571Y-43203571D01*
X76604285Y-43132142D01*
X76640000Y-43096428D01*
X76711428Y-43060714D01*
X76854285Y-43060714D01*
X76925714Y-43096428D01*
X76961428Y-43132142D01*
X76997142Y-43203571D01*
X76997142Y-43382142D01*
X76961428Y-43453571D01*
X76925714Y-43489285D01*
X76854285Y-43525000D01*
X76711428Y-43525000D01*
X76640000Y-43489285D01*
X76604285Y-43453571D01*
X76568571Y-43382142D01*
X78425714Y-43739285D02*
X78461428Y-43775000D01*
X78532857Y-43810714D01*
X78711428Y-43810714D01*
X78782857Y-43775000D01*
X78818571Y-43739285D01*
X78854285Y-43667857D01*
X78854285Y-43596428D01*
X78818571Y-43489285D01*
X78390000Y-43060714D01*
X78854285Y-43060714D01*
X79532857Y-43810714D02*
X79175714Y-43810714D01*
X79140000Y-43453571D01*
X79175714Y-43489285D01*
X79247142Y-43525000D01*
X79425714Y-43525000D01*
X79497142Y-43489285D01*
X79532857Y-43453571D01*
X79568571Y-43382142D01*
X79568571Y-43203571D01*
X79532857Y-43132142D01*
X79497142Y-43096428D01*
X79425714Y-43060714D01*
X79247142Y-43060714D01*
X79175714Y-43096428D01*
X79140000Y-43132142D01*
X80997142Y-43739285D02*
X81032857Y-43775000D01*
X81104285Y-43810714D01*
X81282857Y-43810714D01*
X81354285Y-43775000D01*
X81390000Y-43739285D01*
X81425714Y-43667857D01*
X81425714Y-43596428D01*
X81390000Y-43489285D01*
X80961428Y-43060714D01*
X81425714Y-43060714D01*
X82068571Y-43560714D02*
X82068571Y-43060714D01*
X81890000Y-43846428D02*
X81711428Y-43310714D01*
X82175714Y-43310714D01*
X83568571Y-43739285D02*
X83604285Y-43775000D01*
X83675714Y-43810714D01*
X83854285Y-43810714D01*
X83925714Y-43775000D01*
X83961428Y-43739285D01*
X83997142Y-43667857D01*
X83997142Y-43596428D01*
X83961428Y-43489285D01*
X83532857Y-43060714D01*
X83997142Y-43060714D01*
X84247142Y-43810714D02*
X84711428Y-43810714D01*
X84461428Y-43525000D01*
X84568571Y-43525000D01*
X84640000Y-43489285D01*
X84675714Y-43453571D01*
X84711428Y-43382142D01*
X84711428Y-43203571D01*
X84675714Y-43132142D01*
X84640000Y-43096428D01*
X84568571Y-43060714D01*
X84354285Y-43060714D01*
X84282857Y-43096428D01*
X84247142Y-43132142D01*
X86140000Y-43739285D02*
X86175714Y-43775000D01*
X86247142Y-43810714D01*
X86425714Y-43810714D01*
X86497142Y-43775000D01*
X86532857Y-43739285D01*
X86568571Y-43667857D01*
X86568571Y-43596428D01*
X86532857Y-43489285D01*
X86104285Y-43060714D01*
X86568571Y-43060714D01*
X86854285Y-43739285D02*
X86890000Y-43775000D01*
X86961428Y-43810714D01*
X87140000Y-43810714D01*
X87211428Y-43775000D01*
X87247142Y-43739285D01*
X87282857Y-43667857D01*
X87282857Y-43596428D01*
X87247142Y-43489285D01*
X86818571Y-43060714D01*
X87282857Y-43060714D01*
X88711428Y-43739285D02*
X88747142Y-43775000D01*
X88818571Y-43810714D01*
X88997142Y-43810714D01*
X89068571Y-43775000D01*
X89104285Y-43739285D01*
X89140000Y-43667857D01*
X89140000Y-43596428D01*
X89104285Y-43489285D01*
X88675714Y-43060714D01*
X89140000Y-43060714D01*
X89854285Y-43060714D02*
X89425714Y-43060714D01*
X89640000Y-43060714D02*
X89640000Y-43810714D01*
X89568571Y-43703571D01*
X89497142Y-43632142D01*
X89425714Y-43596428D01*
X91282857Y-43739285D02*
X91318571Y-43775000D01*
X91390000Y-43810714D01*
X91568571Y-43810714D01*
X91640000Y-43775000D01*
X91675714Y-43739285D01*
X91711428Y-43667857D01*
X91711428Y-43596428D01*
X91675714Y-43489285D01*
X91247142Y-43060714D01*
X91711428Y-43060714D01*
X92175714Y-43810714D02*
X92247142Y-43810714D01*
X92318571Y-43775000D01*
X92354285Y-43739285D01*
X92390000Y-43667857D01*
X92425714Y-43525000D01*
X92425714Y-43346428D01*
X92390000Y-43203571D01*
X92354285Y-43132142D01*
X92318571Y-43096428D01*
X92247142Y-43060714D01*
X92175714Y-43060714D01*
X92104285Y-43096428D01*
X92068571Y-43132142D01*
X92032857Y-43203571D01*
X91997142Y-43346428D01*
X91997142Y-43525000D01*
X92032857Y-43667857D01*
X92068571Y-43739285D01*
X92104285Y-43775000D01*
X92175714Y-43810714D01*
D10*
X73788571Y-43236666D02*
X73812380Y-43212857D01*
X73836190Y-43141428D01*
X73836190Y-43093809D01*
X73812380Y-43022380D01*
X73764761Y-42974761D01*
X73717142Y-42950952D01*
X73621904Y-42927142D01*
X73550476Y-42927142D01*
X73455238Y-42950952D01*
X73407619Y-42974761D01*
X73360000Y-43022380D01*
X73336190Y-43093809D01*
X73336190Y-43141428D01*
X73360000Y-43212857D01*
X73383809Y-43236666D01*
X73836190Y-43665238D02*
X73574285Y-43665238D01*
X73526666Y-43641428D01*
X73502857Y-43593809D01*
X73502857Y-43498571D01*
X73526666Y-43450952D01*
X73812380Y-43665238D02*
X73836190Y-43617619D01*
X73836190Y-43498571D01*
X73812380Y-43450952D01*
X73764761Y-43427142D01*
X73717142Y-43427142D01*
X73669523Y-43450952D01*
X73645714Y-43498571D01*
X73645714Y-43617619D01*
X73621904Y-43665238D01*
X73836190Y-43903333D02*
X73502857Y-43903333D01*
X73550476Y-43903333D02*
X73526666Y-43927142D01*
X73502857Y-43974761D01*
X73502857Y-44046190D01*
X73526666Y-44093809D01*
X73574285Y-44117619D01*
X73836190Y-44117619D01*
X73574285Y-44117619D02*
X73526666Y-44141428D01*
X73502857Y-44189047D01*
X73502857Y-44260476D01*
X73526666Y-44308095D01*
X73574285Y-44331904D01*
X73836190Y-44331904D01*
X73883809Y-44450952D02*
X73883809Y-44831904D01*
X73836190Y-45022380D02*
X73812380Y-44974761D01*
X73788571Y-44950952D01*
X73740952Y-44927142D01*
X73598095Y-44927142D01*
X73550476Y-44950952D01*
X73526666Y-44974761D01*
X73502857Y-45022380D01*
X73502857Y-45093809D01*
X73526666Y-45141428D01*
X73550476Y-45165238D01*
X73598095Y-45189047D01*
X73740952Y-45189047D01*
X73788571Y-45165238D01*
X73812380Y-45141428D01*
X73836190Y-45093809D01*
X73836190Y-45022380D01*
X73502857Y-45331904D02*
X73502857Y-45522380D01*
X73836190Y-45403333D02*
X73407619Y-45403333D01*
X73360000Y-45427142D01*
X73336190Y-45474761D01*
X73336190Y-45522380D01*
X73502857Y-45617619D02*
X73502857Y-45808095D01*
X73836190Y-45689047D02*
X73407619Y-45689047D01*
X73360000Y-45712857D01*
X73336190Y-45760476D01*
X73336190Y-45808095D01*
X73836190Y-45974761D02*
X73336190Y-45974761D01*
X73526666Y-45974761D02*
X73502857Y-46022380D01*
X73502857Y-46117619D01*
X73526666Y-46165238D01*
X73550476Y-46189047D01*
X73598095Y-46212857D01*
X73740952Y-46212857D01*
X73788571Y-46189047D01*
X73812380Y-46165238D01*
X73836190Y-46117619D01*
X73836190Y-46022380D01*
X73812380Y-45974761D01*
X73836190Y-46498571D02*
X73812380Y-46450952D01*
X73788571Y-46427142D01*
X73740952Y-46403333D01*
X73598095Y-46403333D01*
X73550476Y-46427142D01*
X73526666Y-46450952D01*
X73502857Y-46498571D01*
X73502857Y-46570000D01*
X73526666Y-46617619D01*
X73550476Y-46641428D01*
X73598095Y-46665238D01*
X73740952Y-46665238D01*
X73788571Y-46641428D01*
X73812380Y-46617619D01*
X73836190Y-46570000D01*
X73836190Y-46498571D01*
X73836190Y-47093809D02*
X73574285Y-47093809D01*
X73526666Y-47070000D01*
X73502857Y-47022380D01*
X73502857Y-46927142D01*
X73526666Y-46879523D01*
X73812380Y-47093809D02*
X73836190Y-47046190D01*
X73836190Y-46927142D01*
X73812380Y-46879523D01*
X73764761Y-46855714D01*
X73717142Y-46855714D01*
X73669523Y-46879523D01*
X73645714Y-46927142D01*
X73645714Y-47046190D01*
X73621904Y-47093809D01*
X73836190Y-47331904D02*
X73502857Y-47331904D01*
X73598095Y-47331904D02*
X73550476Y-47355714D01*
X73526666Y-47379523D01*
X73502857Y-47427142D01*
X73502857Y-47474761D01*
X73836190Y-47855714D02*
X73336190Y-47855714D01*
X73812380Y-47855714D02*
X73836190Y-47808095D01*
X73836190Y-47712857D01*
X73812380Y-47665238D01*
X73788571Y-47641428D01*
X73740952Y-47617619D01*
X73598095Y-47617619D01*
X73550476Y-47641428D01*
X73526666Y-47665238D01*
X73502857Y-47712857D01*
X73502857Y-47808095D01*
X73526666Y-47855714D01*
X73883809Y-47974761D02*
X73883809Y-48355714D01*
X73502857Y-48474761D02*
X73836190Y-48474761D01*
X73550476Y-48474761D02*
X73526666Y-48498571D01*
X73502857Y-48546190D01*
X73502857Y-48617619D01*
X73526666Y-48665238D01*
X73574285Y-48689047D01*
X73836190Y-48689047D01*
D13*
X67924285Y-42950714D02*
X67924285Y-43700714D01*
X68352857Y-42950714D01*
X68352857Y-43700714D01*
X69138571Y-43022142D02*
X69102857Y-42986428D01*
X68995714Y-42950714D01*
X68924285Y-42950714D01*
X68817142Y-42986428D01*
X68745714Y-43057857D01*
X68710000Y-43129285D01*
X68674285Y-43272142D01*
X68674285Y-43379285D01*
X68710000Y-43522142D01*
X68745714Y-43593571D01*
X68817142Y-43665000D01*
X68924285Y-43700714D01*
X68995714Y-43700714D01*
X69102857Y-43665000D01*
X69138571Y-43629285D01*
X70460000Y-42950714D02*
X70210000Y-43307857D01*
X70031428Y-42950714D02*
X70031428Y-43700714D01*
X70317142Y-43700714D01*
X70388571Y-43665000D01*
X70424285Y-43629285D01*
X70460000Y-43557857D01*
X70460000Y-43450714D01*
X70424285Y-43379285D01*
X70388571Y-43343571D01*
X70317142Y-43307857D01*
X70031428Y-43307857D01*
X70781428Y-43700714D02*
X70781428Y-43093571D01*
X70817142Y-43022142D01*
X70852857Y-42986428D01*
X70924285Y-42950714D01*
X71067142Y-42950714D01*
X71138571Y-42986428D01*
X71174285Y-43022142D01*
X71210000Y-43093571D01*
X71210000Y-43700714D01*
X71567142Y-42950714D02*
X71567142Y-43700714D01*
X71995714Y-42950714D01*
X71995714Y-43700714D01*
D14*
X147135000Y-59873333D02*
X147170714Y-59940000D01*
X147170714Y-60040000D01*
X147135000Y-60140000D01*
X147063571Y-60206666D01*
X146992142Y-60240000D01*
X146849285Y-60273333D01*
X146742142Y-60273333D01*
X146599285Y-60240000D01*
X146527857Y-60206666D01*
X146456428Y-60140000D01*
X146420714Y-60040000D01*
X146420714Y-59973333D01*
X146456428Y-59873333D01*
X146492142Y-59840000D01*
X146742142Y-59840000D01*
X146742142Y-59973333D01*
X146420714Y-59540000D02*
X147170714Y-59540000D01*
X146420714Y-59140000D01*
X147170714Y-59140000D01*
X146420714Y-58806666D02*
X147170714Y-58806666D01*
X147170714Y-58640000D01*
X147135000Y-58540000D01*
X147063571Y-58473333D01*
X146992142Y-58440000D01*
X146849285Y-58406666D01*
X146742142Y-58406666D01*
X146599285Y-58440000D01*
X146527857Y-58473333D01*
X146456428Y-58540000D01*
X146420714Y-58640000D01*
X146420714Y-58806666D01*
X146492142Y-57173333D02*
X146456428Y-57206666D01*
X146420714Y-57306666D01*
X146420714Y-57373333D01*
X146456428Y-57473333D01*
X146527857Y-57540000D01*
X146599285Y-57573333D01*
X146742142Y-57606666D01*
X146849285Y-57606666D01*
X146992142Y-57573333D01*
X147063571Y-57540000D01*
X147135000Y-57473333D01*
X147170714Y-57373333D01*
X147170714Y-57306666D01*
X147135000Y-57206666D01*
X147099285Y-57173333D01*
X146420714Y-56540000D02*
X146420714Y-56873333D01*
X147170714Y-56873333D01*
X146420714Y-56306666D02*
X147170714Y-56306666D01*
X146420714Y-55906666D02*
X146849285Y-56206666D01*
X147170714Y-55906666D02*
X146742142Y-56306666D01*
X146420714Y-55073333D02*
X147170714Y-55073333D01*
X146635000Y-54840000D01*
X147170714Y-54606666D01*
X146420714Y-54606666D01*
X147170714Y-54140000D02*
X147170714Y-54006666D01*
X147135000Y-53940000D01*
X147063571Y-53873333D01*
X146920714Y-53840000D01*
X146670714Y-53840000D01*
X146527857Y-53873333D01*
X146456428Y-53940000D01*
X146420714Y-54006666D01*
X146420714Y-54140000D01*
X146456428Y-54206666D01*
X146527857Y-54273333D01*
X146670714Y-54306666D01*
X146920714Y-54306666D01*
X147063571Y-54273333D01*
X147135000Y-54206666D01*
X147170714Y-54140000D01*
X146456428Y-53573333D02*
X146420714Y-53473333D01*
X146420714Y-53306666D01*
X146456428Y-53240000D01*
X146492142Y-53206666D01*
X146563571Y-53173333D01*
X146635000Y-53173333D01*
X146706428Y-53206666D01*
X146742142Y-53240000D01*
X146777857Y-53306666D01*
X146813571Y-53440000D01*
X146849285Y-53506666D01*
X146885000Y-53540000D01*
X146956428Y-53573333D01*
X147027857Y-53573333D01*
X147099285Y-53540000D01*
X147135000Y-53506666D01*
X147170714Y-53440000D01*
X147170714Y-53273333D01*
X147135000Y-53173333D01*
X146420714Y-52873333D02*
X147170714Y-52873333D01*
X146420714Y-52006666D02*
X147170714Y-52006666D01*
X146635000Y-51773333D01*
X147170714Y-51540000D01*
X146420714Y-51540000D01*
X146420714Y-51206666D02*
X147170714Y-51206666D01*
X146456428Y-50906666D02*
X146420714Y-50806666D01*
X146420714Y-50640000D01*
X146456428Y-50573333D01*
X146492142Y-50540000D01*
X146563571Y-50506666D01*
X146635000Y-50506666D01*
X146706428Y-50540000D01*
X146742142Y-50573333D01*
X146777857Y-50640000D01*
X146813571Y-50773333D01*
X146849285Y-50840000D01*
X146885000Y-50873333D01*
X146956428Y-50906666D01*
X147027857Y-50906666D01*
X147099285Y-50873333D01*
X147135000Y-50840000D01*
X147170714Y-50773333D01*
X147170714Y-50606666D01*
X147135000Y-50506666D01*
X147170714Y-50073333D02*
X147170714Y-49940000D01*
X147135000Y-49873333D01*
X147063571Y-49806666D01*
X146920714Y-49773333D01*
X146670714Y-49773333D01*
X146527857Y-49806666D01*
X146456428Y-49873333D01*
X146420714Y-49940000D01*
X146420714Y-50073333D01*
X146456428Y-50140000D01*
X146527857Y-50206666D01*
X146670714Y-50240000D01*
X146920714Y-50240000D01*
X147063571Y-50206666D01*
X147135000Y-50140000D01*
X147170714Y-50073333D01*
X146492142Y-48540000D02*
X146456428Y-48573333D01*
X146420714Y-48673333D01*
X146420714Y-48740000D01*
X146456428Y-48840000D01*
X146527857Y-48906666D01*
X146599285Y-48940000D01*
X146742142Y-48973333D01*
X146849285Y-48973333D01*
X146992142Y-48940000D01*
X147063571Y-48906666D01*
X147135000Y-48840000D01*
X147170714Y-48740000D01*
X147170714Y-48673333D01*
X147135000Y-48573333D01*
X147099285Y-48540000D01*
X146456428Y-48273333D02*
X146420714Y-48173333D01*
X146420714Y-48006666D01*
X146456428Y-47940000D01*
X146492142Y-47906666D01*
X146563571Y-47873333D01*
X146635000Y-47873333D01*
X146706428Y-47906666D01*
X146742142Y-47940000D01*
X146777857Y-48006666D01*
X146813571Y-48140000D01*
X146849285Y-48206666D01*
X146885000Y-48240000D01*
X146956428Y-48273333D01*
X147027857Y-48273333D01*
X147099285Y-48240000D01*
X147135000Y-48206666D01*
X147170714Y-48140000D01*
X147170714Y-47973333D01*
X147135000Y-47873333D01*
X147170714Y-47106666D02*
X147170714Y-46673333D01*
X146885000Y-46906666D01*
X146885000Y-46806666D01*
X146849285Y-46740000D01*
X146813571Y-46706666D01*
X146742142Y-46673333D01*
X146563571Y-46673333D01*
X146492142Y-46706666D01*
X146456428Y-46740000D01*
X146420714Y-46806666D01*
X146420714Y-47006666D01*
X146456428Y-47073333D01*
X146492142Y-47106666D01*
X147170714Y-46473333D02*
X146420714Y-46240000D01*
X147170714Y-46006666D01*
X147170714Y-45840000D02*
X147170714Y-45406666D01*
X146885000Y-45640000D01*
X146885000Y-45540000D01*
X146849285Y-45473333D01*
X146813571Y-45440000D01*
X146742142Y-45406666D01*
X146563571Y-45406666D01*
X146492142Y-45440000D01*
X146456428Y-45473333D01*
X146420714Y-45540000D01*
X146420714Y-45740000D01*
X146456428Y-45806666D01*
X146492142Y-45840000D01*
D13*
X147055000Y-74545714D02*
X147090714Y-74617142D01*
X147090714Y-74724285D01*
X147055000Y-74831428D01*
X146983571Y-74902857D01*
X146912142Y-74938571D01*
X146769285Y-74974285D01*
X146662142Y-74974285D01*
X146519285Y-74938571D01*
X146447857Y-74902857D01*
X146376428Y-74831428D01*
X146340714Y-74724285D01*
X146340714Y-74652857D01*
X146376428Y-74545714D01*
X146412142Y-74510000D01*
X146662142Y-74510000D01*
X146662142Y-74652857D01*
X146340714Y-74188571D02*
X147090714Y-74188571D01*
X146340714Y-73760000D01*
X147090714Y-73760000D01*
X146340714Y-73402857D02*
X147090714Y-73402857D01*
X147090714Y-73224285D01*
X147055000Y-73117142D01*
X146983571Y-73045714D01*
X146912142Y-73010000D01*
X146769285Y-72974285D01*
X146662142Y-72974285D01*
X146519285Y-73010000D01*
X146447857Y-73045714D01*
X146376428Y-73117142D01*
X146340714Y-73224285D01*
X146340714Y-73402857D01*
X146376428Y-72117142D02*
X146340714Y-72010000D01*
X146340714Y-71831428D01*
X146376428Y-71760000D01*
X146412142Y-71724285D01*
X146483571Y-71688571D01*
X146555000Y-71688571D01*
X146626428Y-71724285D01*
X146662142Y-71760000D01*
X146697857Y-71831428D01*
X146733571Y-71974285D01*
X146769285Y-72045714D01*
X146805000Y-72081428D01*
X146876428Y-72117142D01*
X146947857Y-72117142D01*
X147019285Y-72081428D01*
X147055000Y-72045714D01*
X147090714Y-71974285D01*
X147090714Y-71795714D01*
X147055000Y-71688571D01*
X146340714Y-71367142D02*
X147090714Y-71367142D01*
X147090714Y-71188571D01*
X147055000Y-71081428D01*
X146983571Y-71010000D01*
X146912142Y-70974285D01*
X146769285Y-70938571D01*
X146662142Y-70938571D01*
X146519285Y-70974285D01*
X146447857Y-71010000D01*
X146376428Y-71081428D01*
X146340714Y-71188571D01*
X146340714Y-71367142D01*
X146555000Y-70652857D02*
X146555000Y-70295714D01*
X146340714Y-70724285D02*
X147090714Y-70474285D01*
X146340714Y-70224285D01*
X146340714Y-69402857D02*
X147090714Y-69402857D01*
X147090714Y-68902857D02*
X147090714Y-68760000D01*
X147055000Y-68688571D01*
X146983571Y-68617142D01*
X146840714Y-68581428D01*
X146590714Y-68581428D01*
X146447857Y-68617142D01*
X146376428Y-68688571D01*
X146340714Y-68760000D01*
X146340714Y-68902857D01*
X146376428Y-68974285D01*
X146447857Y-69045714D01*
X146590714Y-69081428D01*
X146840714Y-69081428D01*
X146983571Y-69045714D01*
X147055000Y-68974285D01*
X147090714Y-68902857D01*
X147090714Y-68117142D02*
X147090714Y-68045714D01*
X147055000Y-67974285D01*
X147019285Y-67938571D01*
X146947857Y-67902857D01*
X146805000Y-67867142D01*
X146626428Y-67867142D01*
X146483571Y-67902857D01*
X146412142Y-67938571D01*
X146376428Y-67974285D01*
X146340714Y-68045714D01*
X146340714Y-68117142D01*
X146376428Y-68188571D01*
X146412142Y-68224285D01*
X146483571Y-68260000D01*
X146626428Y-68295714D01*
X146805000Y-68295714D01*
X146947857Y-68260000D01*
X147019285Y-68224285D01*
X147055000Y-68188571D01*
X147090714Y-68117142D01*
X146412142Y-66545714D02*
X146376428Y-66581428D01*
X146340714Y-66688571D01*
X146340714Y-66760000D01*
X146376428Y-66867142D01*
X146447857Y-66938571D01*
X146519285Y-66974285D01*
X146662142Y-67010000D01*
X146769285Y-67010000D01*
X146912142Y-66974285D01*
X146983571Y-66938571D01*
X147055000Y-66867142D01*
X147090714Y-66760000D01*
X147090714Y-66688571D01*
X147055000Y-66581428D01*
X147019285Y-66545714D01*
X146340714Y-65867142D02*
X146340714Y-66224285D01*
X147090714Y-66224285D01*
X146340714Y-65617142D02*
X147090714Y-65617142D01*
X146340714Y-65188571D02*
X146769285Y-65510000D01*
X147090714Y-65188571D02*
X146662142Y-65617142D01*
X147090714Y-64367142D02*
X147090714Y-63902857D01*
X146805000Y-64152857D01*
X146805000Y-64045714D01*
X146769285Y-63974285D01*
X146733571Y-63938571D01*
X146662142Y-63902857D01*
X146483571Y-63902857D01*
X146412142Y-63938571D01*
X146376428Y-63974285D01*
X146340714Y-64045714D01*
X146340714Y-64260000D01*
X146376428Y-64331428D01*
X146412142Y-64367142D01*
X147090714Y-63688571D02*
X146340714Y-63438571D01*
X147090714Y-63188571D01*
X147090714Y-63010000D02*
X147090714Y-62545714D01*
X146805000Y-62795714D01*
X146805000Y-62688571D01*
X146769285Y-62617142D01*
X146733571Y-62581428D01*
X146662142Y-62545714D01*
X146483571Y-62545714D01*
X146412142Y-62581428D01*
X146376428Y-62617142D01*
X146340714Y-62688571D01*
X146340714Y-62902857D01*
X146376428Y-62974285D01*
X146412142Y-63010000D01*
X147005000Y-85495000D02*
X147040714Y-85566428D01*
X147040714Y-85673571D01*
X147005000Y-85780714D01*
X146933571Y-85852142D01*
X146862142Y-85887857D01*
X146719285Y-85923571D01*
X146612142Y-85923571D01*
X146469285Y-85887857D01*
X146397857Y-85852142D01*
X146326428Y-85780714D01*
X146290714Y-85673571D01*
X146290714Y-85602142D01*
X146326428Y-85495000D01*
X146362142Y-85459285D01*
X146612142Y-85459285D01*
X146612142Y-85602142D01*
X146290714Y-85137857D02*
X147040714Y-85137857D01*
X146290714Y-84709285D01*
X147040714Y-84709285D01*
X146290714Y-84352142D02*
X147040714Y-84352142D01*
X147040714Y-84173571D01*
X147005000Y-84066428D01*
X146933571Y-83995000D01*
X146862142Y-83959285D01*
X146719285Y-83923571D01*
X146612142Y-83923571D01*
X146469285Y-83959285D01*
X146397857Y-83995000D01*
X146326428Y-84066428D01*
X146290714Y-84173571D01*
X146290714Y-84352142D01*
X146290714Y-82602142D02*
X146647857Y-82852142D01*
X146290714Y-83030714D02*
X147040714Y-83030714D01*
X147040714Y-82745000D01*
X147005000Y-82673571D01*
X146969285Y-82637857D01*
X146897857Y-82602142D01*
X146790714Y-82602142D01*
X146719285Y-82637857D01*
X146683571Y-82673571D01*
X146647857Y-82745000D01*
X146647857Y-83030714D01*
X147040714Y-82352142D02*
X146290714Y-81852142D01*
X147040714Y-81852142D02*
X146290714Y-82352142D01*
X147040714Y-80530714D02*
X147040714Y-80102142D01*
X146290714Y-80316428D02*
X147040714Y-80316428D01*
X147040714Y-79923571D02*
X146290714Y-79423571D01*
X147040714Y-79423571D02*
X146290714Y-79923571D01*
X147040714Y-78637857D02*
X147040714Y-78173571D01*
X146755000Y-78423571D01*
X146755000Y-78316428D01*
X146719285Y-78245000D01*
X146683571Y-78209285D01*
X146612142Y-78173571D01*
X146433571Y-78173571D01*
X146362142Y-78209285D01*
X146326428Y-78245000D01*
X146290714Y-78316428D01*
X146290714Y-78530714D01*
X146326428Y-78602142D01*
X146362142Y-78637857D01*
X147040714Y-77959285D02*
X146290714Y-77709285D01*
X147040714Y-77459285D01*
X147040714Y-77280714D02*
X147040714Y-76816428D01*
X146755000Y-77066428D01*
X146755000Y-76959285D01*
X146719285Y-76887857D01*
X146683571Y-76852142D01*
X146612142Y-76816428D01*
X146433571Y-76816428D01*
X146362142Y-76852142D01*
X146326428Y-76887857D01*
X146290714Y-76959285D01*
X146290714Y-77173571D01*
X146326428Y-77245000D01*
X146362142Y-77280714D01*
D11*
X145592857Y-94608571D02*
X146307142Y-94608571D01*
X146378571Y-95322857D01*
X146307142Y-95251428D01*
X146164285Y-95180000D01*
X145807142Y-95180000D01*
X145664285Y-95251428D01*
X145592857Y-95322857D01*
X145521428Y-95465714D01*
X145521428Y-95822857D01*
X145592857Y-95965714D01*
X145664285Y-96037142D01*
X145807142Y-96108571D01*
X146164285Y-96108571D01*
X146307142Y-96037142D01*
X146378571Y-95965714D01*
X145092857Y-94608571D02*
X144592857Y-96108571D01*
X144092857Y-94608571D01*
X142450000Y-96108571D02*
X142450000Y-95108571D01*
X142450000Y-94608571D02*
X142521428Y-94680000D01*
X142450000Y-94751428D01*
X142378571Y-94680000D01*
X142450000Y-94608571D01*
X142450000Y-94751428D01*
X141735714Y-95108571D02*
X141735714Y-96108571D01*
X141735714Y-95251428D02*
X141664285Y-95180000D01*
X141521428Y-95108571D01*
X141307142Y-95108571D01*
X141164285Y-95180000D01*
X141092857Y-95322857D01*
X141092857Y-96108571D01*
X145315714Y-121478571D02*
X146172857Y-121478571D01*
X145744285Y-121478571D02*
X145744285Y-119978571D01*
X145887142Y-120192857D01*
X146030000Y-120335714D01*
X146172857Y-120407142D01*
X144744285Y-120121428D02*
X144672857Y-120050000D01*
X144530000Y-119978571D01*
X144172857Y-119978571D01*
X144030000Y-120050000D01*
X143958571Y-120121428D01*
X143887142Y-120264285D01*
X143887142Y-120407142D01*
X143958571Y-120621428D01*
X144815714Y-121478571D01*
X143887142Y-121478571D01*
X143458571Y-119978571D02*
X142958571Y-121478571D01*
X142458571Y-119978571D01*
X140815714Y-121478571D02*
X140815714Y-120478571D01*
X140815714Y-119978571D02*
X140887142Y-120050000D01*
X140815714Y-120121428D01*
X140744285Y-120050000D01*
X140815714Y-119978571D01*
X140815714Y-120121428D01*
X140101428Y-120478571D02*
X140101428Y-121478571D01*
X140101428Y-120621428D02*
X140030000Y-120550000D01*
X139887142Y-120478571D01*
X139672857Y-120478571D01*
X139530000Y-120550000D01*
X139458571Y-120692857D01*
X139458571Y-121478571D01*
X116770000Y-124805714D02*
X116841428Y-124877142D01*
X117055714Y-124948571D01*
X117198571Y-124948571D01*
X117412857Y-124877142D01*
X117555714Y-124734285D01*
X117627142Y-124591428D01*
X117698571Y-124305714D01*
X117698571Y-124091428D01*
X117627142Y-123805714D01*
X117555714Y-123662857D01*
X117412857Y-123520000D01*
X117198571Y-123448571D01*
X117055714Y-123448571D01*
X116841428Y-123520000D01*
X116770000Y-123591428D01*
X116198571Y-124520000D02*
X115484285Y-124520000D01*
X116341428Y-124948571D02*
X115841428Y-123448571D01*
X115341428Y-124948571D01*
X114841428Y-124948571D02*
X114841428Y-123448571D01*
X114341428Y-124520000D01*
X113841428Y-123448571D01*
X113841428Y-124948571D01*
X112341428Y-124948571D02*
X113198571Y-124948571D01*
X112770000Y-124948571D02*
X112770000Y-123448571D01*
X112912857Y-123662857D01*
X113055714Y-123805714D01*
X113198571Y-123877142D01*
X81840000Y-125245714D02*
X81911428Y-125317142D01*
X82125714Y-125388571D01*
X82268571Y-125388571D01*
X82482857Y-125317142D01*
X82625714Y-125174285D01*
X82697142Y-125031428D01*
X82768571Y-124745714D01*
X82768571Y-124531428D01*
X82697142Y-124245714D01*
X82625714Y-124102857D01*
X82482857Y-123960000D01*
X82268571Y-123888571D01*
X82125714Y-123888571D01*
X81911428Y-123960000D01*
X81840000Y-124031428D01*
X81268571Y-124960000D02*
X80554285Y-124960000D01*
X81411428Y-125388571D02*
X80911428Y-123888571D01*
X80411428Y-125388571D01*
X79911428Y-125388571D02*
X79911428Y-123888571D01*
X79411428Y-124960000D01*
X78911428Y-123888571D01*
X78911428Y-125388571D01*
X77911428Y-123888571D02*
X77768571Y-123888571D01*
X77625714Y-123960000D01*
X77554285Y-124031428D01*
X77482857Y-124174285D01*
X77411428Y-124460000D01*
X77411428Y-124817142D01*
X77482857Y-125102857D01*
X77554285Y-125245714D01*
X77625714Y-125317142D01*
X77768571Y-125388571D01*
X77911428Y-125388571D01*
X78054285Y-125317142D01*
X78125714Y-125245714D01*
X78197142Y-125102857D01*
X78268571Y-124817142D01*
X78268571Y-124460000D01*
X78197142Y-124174285D01*
X78125714Y-124031428D01*
X78054285Y-123960000D01*
X77911428Y-123888571D01*
X59391428Y-117947857D02*
X59177142Y-118019285D01*
X59105714Y-118090714D01*
X59034285Y-118233571D01*
X59034285Y-118447857D01*
X59105714Y-118590714D01*
X59177142Y-118662142D01*
X59320000Y-118733571D01*
X59891428Y-118733571D01*
X59891428Y-117233571D01*
X59391428Y-117233571D01*
X59248571Y-117305000D01*
X59177142Y-117376428D01*
X59105714Y-117519285D01*
X59105714Y-117662142D01*
X59177142Y-117805000D01*
X59248571Y-117876428D01*
X59391428Y-117947857D01*
X59891428Y-117947857D01*
X58177142Y-118733571D02*
X58320000Y-118662142D01*
X58391428Y-118590714D01*
X58462857Y-118447857D01*
X58462857Y-118019285D01*
X58391428Y-117876428D01*
X58320000Y-117805000D01*
X58177142Y-117733571D01*
X57962857Y-117733571D01*
X57820000Y-117805000D01*
X57748571Y-117876428D01*
X57677142Y-118019285D01*
X57677142Y-118447857D01*
X57748571Y-118590714D01*
X57820000Y-118662142D01*
X57962857Y-118733571D01*
X58177142Y-118733571D01*
X56820000Y-118733571D02*
X56962857Y-118662142D01*
X57034285Y-118590714D01*
X57105714Y-118447857D01*
X57105714Y-118019285D01*
X57034285Y-117876428D01*
X56962857Y-117805000D01*
X56820000Y-117733571D01*
X56605714Y-117733571D01*
X56462857Y-117805000D01*
X56391428Y-117876428D01*
X56320000Y-118019285D01*
X56320000Y-118447857D01*
X56391428Y-118590714D01*
X56462857Y-118662142D01*
X56605714Y-118733571D01*
X56820000Y-118733571D01*
X55891428Y-117733571D02*
X55320000Y-117733571D01*
X55677142Y-117233571D02*
X55677142Y-118519285D01*
X55605714Y-118662142D01*
X55462857Y-118733571D01*
X55320000Y-118733571D01*
X53891428Y-117733571D02*
X53320000Y-117733571D01*
X53677142Y-118733571D02*
X53677142Y-117447857D01*
X53605714Y-117305000D01*
X53462857Y-117233571D01*
X53320000Y-117233571D01*
X52820000Y-118733571D02*
X52820000Y-117733571D01*
X52820000Y-118019285D02*
X52748571Y-117876428D01*
X52677142Y-117805000D01*
X52534285Y-117733571D01*
X52391428Y-117733571D01*
X51677142Y-118733571D02*
X51820000Y-118662142D01*
X51891428Y-118590714D01*
X51962857Y-118447857D01*
X51962857Y-118019285D01*
X51891428Y-117876428D01*
X51820000Y-117805000D01*
X51677142Y-117733571D01*
X51462857Y-117733571D01*
X51320000Y-117805000D01*
X51248571Y-117876428D01*
X51177142Y-118019285D01*
X51177142Y-118447857D01*
X51248571Y-118590714D01*
X51320000Y-118662142D01*
X51462857Y-118733571D01*
X51677142Y-118733571D01*
X50534285Y-118733571D02*
X50534285Y-117733571D01*
X50534285Y-117876428D02*
X50462857Y-117805000D01*
X50320000Y-117733571D01*
X50105714Y-117733571D01*
X49962857Y-117805000D01*
X49891428Y-117947857D01*
X49891428Y-118733571D01*
X49891428Y-117947857D02*
X49820000Y-117805000D01*
X49677142Y-117733571D01*
X49462857Y-117733571D01*
X49320000Y-117805000D01*
X49248571Y-117947857D01*
X49248571Y-118733571D01*
X57034285Y-119783571D02*
X57034285Y-120997857D01*
X56962857Y-121140714D01*
X56891428Y-121212142D01*
X56748571Y-121283571D01*
X56462857Y-121283571D01*
X56320000Y-121212142D01*
X56248571Y-121140714D01*
X56177142Y-120997857D01*
X56177142Y-119783571D01*
X55534285Y-121212142D02*
X55320000Y-121283571D01*
X54962857Y-121283571D01*
X54820000Y-121212142D01*
X54748571Y-121140714D01*
X54677142Y-120997857D01*
X54677142Y-120855000D01*
X54748571Y-120712142D01*
X54820000Y-120640714D01*
X54962857Y-120569285D01*
X55248571Y-120497857D01*
X55391428Y-120426428D01*
X55462857Y-120355000D01*
X55534285Y-120212142D01*
X55534285Y-120069285D01*
X55462857Y-119926428D01*
X55391428Y-119855000D01*
X55248571Y-119783571D01*
X54891428Y-119783571D01*
X54677142Y-119855000D01*
X53534285Y-120497857D02*
X53320000Y-120569285D01*
X53248571Y-120640714D01*
X53177142Y-120783571D01*
X53177142Y-120997857D01*
X53248571Y-121140714D01*
X53320000Y-121212142D01*
X53462857Y-121283571D01*
X54034285Y-121283571D01*
X54034285Y-119783571D01*
X53534285Y-119783571D01*
X53391428Y-119855000D01*
X53320000Y-119926428D01*
X53248571Y-120069285D01*
X53248571Y-120212142D01*
X53320000Y-120355000D01*
X53391428Y-120426428D01*
X53534285Y-120497857D01*
X54034285Y-120497857D01*
D14*
X130700000Y-113210000D02*
X130700000Y-105210000D01*
X130700000Y-113210000D02*
X138700000Y-113210000D01*
X138700000Y-105210000D02*
X138700000Y-113210000D01*
X138700000Y-105210000D02*
X130700000Y-105210000D01*
D15*
X93850000Y-118325000D02*
X95150000Y-118325000D01*
X95400000Y-116525000D02*
X93850000Y-116525000D01*
X67275000Y-42255000D02*
X67275000Y-37055000D01*
X140995000Y-42255000D02*
X67275000Y-42255000D01*
X143595000Y-37055000D02*
X67275000Y-37055000D01*
X140995000Y-42255000D02*
X140995000Y-39655000D01*
X140995000Y-39655000D02*
X143595000Y-39655000D01*
X143595000Y-39655000D02*
X143595000Y-37055000D01*
X142265000Y-42255000D02*
X143595000Y-42255000D01*
X143595000Y-42255000D02*
X143595000Y-40925000D01*
D16*
X95575000Y-106340000D02*
X96485000Y-106340000D01*
X96485000Y-106340000D02*
X96485000Y-108660000D01*
X96485000Y-108660000D02*
X95575000Y-108660000D01*
X89175000Y-106340000D02*
X88265000Y-106340000D01*
X88265000Y-106340000D02*
X88265000Y-108660000D01*
X88265000Y-108660000D02*
X89175000Y-108660000D01*
D17*
X95225000Y-109800000D02*
G75*
G03X95225000Y-109800000I-50000J0D01*
G01*
D15*
X127065000Y-93421267D02*
X127065000Y-93078733D01*
X128085000Y-93421267D02*
X128085000Y-93078733D01*
D16*
X140075000Y-133670000D02*
X140075000Y-132230000D01*
X128875000Y-133670000D02*
X128875000Y-132230000D01*
X139275000Y-129200000D02*
X138510000Y-129200000D01*
X129675000Y-129200000D02*
X130440000Y-129200000D01*
D18*
X130975000Y-128350000D02*
G75*
G03X130975000Y-128350000I-100000J0D01*
G01*
D16*
X139275000Y-136100000D02*
X129675000Y-136100000D01*
D15*
X59261831Y-62746034D02*
X59261831Y-64546034D01*
X56041831Y-64546034D02*
X56041831Y-61596034D01*
D16*
X49740000Y-53580000D02*
X51180000Y-53580000D01*
X49740000Y-42380000D02*
X51180000Y-42380000D01*
X54210000Y-52780000D02*
X54210000Y-52015000D01*
X54210000Y-43180000D02*
X54210000Y-43945000D01*
D18*
X55160000Y-44380000D02*
G75*
G03X55160000Y-44380000I-100000J0D01*
G01*
D16*
X47310000Y-52780000D02*
X47310000Y-43180000D01*
D15*
X72003733Y-88415000D02*
X72346267Y-88415000D01*
X72003733Y-89435000D02*
X72346267Y-89435000D01*
X71928733Y-91335000D02*
X72271267Y-91335000D01*
X71928733Y-90315000D02*
X72271267Y-90315000D01*
X124435000Y-93421267D02*
X124435000Y-93078733D01*
X123415000Y-93421267D02*
X123415000Y-93078733D01*
X129785000Y-93446267D02*
X129785000Y-93103733D01*
X128765000Y-93446267D02*
X128765000Y-93103733D01*
X97828733Y-122085000D02*
X98171267Y-122085000D01*
X97828733Y-121065000D02*
X98171267Y-121065000D01*
X105859733Y-114302000D02*
X106202267Y-114302000D01*
X105859733Y-113282000D02*
X106202267Y-113282000D01*
X121690000Y-93053733D02*
X121690000Y-93396267D01*
X122710000Y-93053733D02*
X122710000Y-93396267D01*
X115335000Y-93103733D02*
X115335000Y-93446267D01*
X114315000Y-93103733D02*
X114315000Y-93446267D01*
X92923733Y-133740000D02*
X93266267Y-133740000D01*
X92923733Y-132720000D02*
X93266267Y-132720000D01*
X92963733Y-131050000D02*
X93306267Y-131050000D01*
X92963733Y-132070000D02*
X93306267Y-132070000D01*
X125110000Y-122536267D02*
X125110000Y-122193733D01*
X126130000Y-122536267D02*
X126130000Y-122193733D01*
X108140000Y-124116267D02*
X108140000Y-123773733D01*
X109160000Y-124116267D02*
X109160000Y-123773733D01*
X97558733Y-130750000D02*
X97901267Y-130750000D01*
X97558733Y-129730000D02*
X97901267Y-129730000D01*
X106424000Y-124123267D02*
X106424000Y-123780733D01*
X107444000Y-124123267D02*
X107444000Y-123780733D01*
X105859733Y-116080000D02*
X106202267Y-116080000D01*
X105859733Y-115060000D02*
X106202267Y-115060000D01*
X97803733Y-117790000D02*
X98146267Y-117790000D01*
X97803733Y-118810000D02*
X98146267Y-118810000D01*
X124470000Y-122526267D02*
X124470000Y-122183733D01*
X123450000Y-122526267D02*
X123450000Y-122183733D01*
X120410000Y-61103733D02*
X120410000Y-61446267D01*
X119390000Y-61103733D02*
X119390000Y-61446267D01*
X71903733Y-92040000D02*
X72246267Y-92040000D01*
X71903733Y-93060000D02*
X72246267Y-93060000D01*
X58206267Y-55730000D02*
X57863733Y-55730000D01*
X58206267Y-56750000D02*
X57863733Y-56750000D01*
X63665000Y-99478733D02*
X63665000Y-99821267D01*
X64685000Y-99478733D02*
X64685000Y-99821267D01*
X66685000Y-99453733D02*
X66685000Y-99796267D01*
X65665000Y-99453733D02*
X65665000Y-99796267D01*
X64230000Y-44426267D02*
X64230000Y-44083733D01*
X65250000Y-44426267D02*
X65250000Y-44083733D01*
X99500000Y-81975000D02*
X98600000Y-81975000D01*
X95900000Y-81975000D02*
X95900000Y-77075000D01*
X99500000Y-77075000D02*
X99500000Y-81975000D01*
X95250000Y-77075000D02*
X95250000Y-81975000D01*
X91650000Y-81975000D02*
X91650000Y-77075000D01*
X95250000Y-81975000D02*
X94350000Y-81975000D01*
X134092589Y-103514946D02*
X136865093Y-103514946D01*
X134092589Y-100094946D02*
X136865093Y-100094946D01*
D14*
X143153841Y-97804946D02*
X144553841Y-97804946D01*
X146953841Y-97804946D02*
X147103841Y-97804946D01*
X147103841Y-97804946D02*
X147103841Y-98104946D01*
X147103841Y-98104946D02*
X147553841Y-98104946D01*
X147553841Y-105804946D02*
X147103841Y-105804946D01*
X147103841Y-105804946D02*
X147103841Y-106104946D01*
X147103841Y-106104946D02*
X146953841Y-106104946D01*
X144553841Y-106104946D02*
X143153841Y-106104946D01*
X140978841Y-100879946D02*
X140978841Y-100154946D01*
X140978841Y-100154946D02*
X141403841Y-100154946D01*
X141403841Y-100154946D02*
X141403841Y-99154946D01*
X141403841Y-103754946D02*
X141403841Y-104754946D01*
D16*
X67250000Y-136150000D02*
X57650000Y-136150000D01*
D18*
X58950000Y-128400000D02*
G75*
G03X58950000Y-128400000I-100000J0D01*
G01*
D16*
X57650000Y-129250000D02*
X58415000Y-129250000D01*
X67250000Y-129250000D02*
X66485000Y-129250000D01*
X56850000Y-133720000D02*
X56850000Y-132280000D01*
X68050000Y-133720000D02*
X68050000Y-132280000D01*
D14*
X53700000Y-74300000D02*
X53700000Y-73300000D01*
X53700000Y-77900000D02*
X53700000Y-78900000D01*
X54125000Y-77900000D02*
X53700000Y-77900000D01*
X54125000Y-77175000D02*
X54125000Y-77900000D01*
X50550000Y-71950000D02*
X51950000Y-71950000D01*
X48000000Y-71950000D02*
X48150000Y-71950000D01*
X48000000Y-72250000D02*
X48000000Y-71950000D01*
X47550000Y-72250000D02*
X48000000Y-72250000D01*
X48000000Y-79950000D02*
X47550000Y-79950000D01*
X48000000Y-80250000D02*
X48000000Y-79950000D01*
X48150000Y-80250000D02*
X48000000Y-80250000D01*
X51950000Y-80250000D02*
X50550000Y-80250000D01*
D15*
X108940000Y-93361252D02*
X108940000Y-92838748D01*
X110360000Y-93361252D02*
X110360000Y-92838748D01*
X133663733Y-66200000D02*
X134006267Y-66200000D01*
X133663733Y-65180000D02*
X134006267Y-65180000D01*
X126185000Y-93078733D02*
X126185000Y-93421267D01*
X125165000Y-93078733D02*
X125165000Y-93421267D01*
X80967733Y-79246000D02*
X81310267Y-79246000D01*
X80967733Y-80266000D02*
X81310267Y-80266000D01*
X119965000Y-93053733D02*
X119965000Y-93396267D01*
X120985000Y-93053733D02*
X120985000Y-93396267D01*
X112010000Y-93128733D02*
X112010000Y-93471267D01*
X110990000Y-93128733D02*
X110990000Y-93471267D01*
X97803733Y-116140000D02*
X98146267Y-116140000D01*
X97803733Y-117160000D02*
X98146267Y-117160000D01*
X119260000Y-93396267D02*
X119260000Y-93053733D01*
X118240000Y-93396267D02*
X118240000Y-93053733D01*
X112615000Y-93446267D02*
X112615000Y-93103733D01*
X113635000Y-93446267D02*
X113635000Y-93103733D01*
X75750267Y-105410000D02*
X75407733Y-105410000D01*
X75750267Y-104390000D02*
X75407733Y-104390000D01*
X98171267Y-120510000D02*
X97828733Y-120510000D01*
X98171267Y-119490000D02*
X97828733Y-119490000D01*
X97921267Y-127990000D02*
X97578733Y-127990000D01*
X97921267Y-129010000D02*
X97578733Y-129010000D01*
X97778733Y-123685000D02*
X98121267Y-123685000D01*
X97778733Y-122665000D02*
X98121267Y-122665000D01*
X117640000Y-61421267D02*
X117640000Y-61078733D01*
X118660000Y-61421267D02*
X118660000Y-61078733D01*
X58196267Y-58470000D02*
X57853733Y-58470000D01*
X58196267Y-57450000D02*
X57853733Y-57450000D01*
X61261831Y-62342301D02*
X61261831Y-61999767D01*
X60241831Y-62342301D02*
X60241831Y-61999767D01*
X57148098Y-68281034D02*
X56805564Y-68281034D01*
X57148098Y-67261034D02*
X56805564Y-67261034D01*
X131635000Y-68778733D02*
X131635000Y-69121267D01*
X130615000Y-68778733D02*
X130615000Y-69121267D01*
X65150000Y-59993733D02*
X65150000Y-60336267D01*
X66170000Y-59993733D02*
X66170000Y-60336267D01*
X113435000Y-68778733D02*
X113435000Y-69121267D01*
X112415000Y-68778733D02*
X112415000Y-69121267D01*
X128915000Y-68778733D02*
X128915000Y-69121267D01*
X129935000Y-68778733D02*
X129935000Y-69121267D01*
X110715000Y-68778733D02*
X110715000Y-69121267D01*
X111735000Y-68778733D02*
X111735000Y-69121267D01*
X128135000Y-68778733D02*
X128135000Y-69121267D01*
X127115000Y-68778733D02*
X127115000Y-69121267D01*
X110010000Y-68778733D02*
X110010000Y-69121267D01*
X108990000Y-68778733D02*
X108990000Y-69121267D01*
X125315000Y-68778733D02*
X125315000Y-69121267D01*
X126335000Y-68778733D02*
X126335000Y-69121267D01*
X60240000Y-65643733D02*
X60240000Y-65986267D01*
X61260000Y-65643733D02*
X61260000Y-65986267D01*
X123415000Y-68778733D02*
X123415000Y-69121267D01*
X124435000Y-68778733D02*
X124435000Y-69121267D01*
X121565000Y-68778733D02*
X121565000Y-69121267D01*
X122585000Y-68778733D02*
X122585000Y-69121267D01*
X60400000Y-111806267D02*
X60400000Y-111463733D01*
X61420000Y-111806267D02*
X61420000Y-111463733D01*
X120660000Y-68778733D02*
X120660000Y-69121267D01*
X119640000Y-68778733D02*
X119640000Y-69121267D01*
X107265000Y-68778733D02*
X107265000Y-69121267D01*
X108285000Y-68778733D02*
X108285000Y-69121267D01*
X117840000Y-68778733D02*
X117840000Y-69121267D01*
X118860000Y-68778733D02*
X118860000Y-69121267D01*
X60365000Y-107928733D02*
X60365000Y-108271267D01*
X61385000Y-107928733D02*
X61385000Y-108271267D01*
X105540000Y-68778733D02*
X105540000Y-69121267D01*
X106560000Y-68778733D02*
X106560000Y-69121267D01*
X116040000Y-68778733D02*
X116040000Y-69121267D01*
X117060000Y-68778733D02*
X117060000Y-69121267D01*
X104835000Y-68778733D02*
X104835000Y-69121267D01*
X103815000Y-68778733D02*
X103815000Y-69121267D01*
X114240000Y-68778733D02*
X114240000Y-69121267D01*
X115260000Y-68778733D02*
X115260000Y-69121267D01*
X63978733Y-115160000D02*
X64321267Y-115160000D01*
X63978733Y-114140000D02*
X64321267Y-114140000D01*
X67565000Y-99796267D02*
X67565000Y-99453733D01*
X68585000Y-99796267D02*
X68585000Y-99453733D01*
X59853733Y-83865000D02*
X60196267Y-83865000D01*
X59853733Y-84885000D02*
X60196267Y-84885000D01*
D19*
X115525000Y-99600000D02*
X118525000Y-99600000D01*
X115525000Y-96600000D02*
X118525000Y-96600000D01*
D20*
X114866420Y-99200000D02*
G75*
G03X114866420Y-99200000I-141420J0D01*
G01*
D15*
X92085000Y-120665000D02*
X93845000Y-120665000D01*
X93845000Y-123735000D02*
X91415000Y-123735000D01*
X97000000Y-124215000D02*
X98800000Y-124215000D01*
X98800000Y-127435000D02*
X96350000Y-127435000D01*
D16*
X92700000Y-130000000D02*
X93350000Y-130000000D01*
X93350000Y-130000000D02*
X93350000Y-127100000D01*
X93350000Y-127100000D02*
X92700000Y-127100000D01*
X92700000Y-127100000D02*
X92700000Y-130000000D01*
D21*
X91825000Y-130150000D02*
G75*
G03X91825000Y-130150000I-100000J0D01*
G01*
D20*
X128775000Y-60275000D02*
X127955000Y-60275000D01*
X128675000Y-62975000D02*
X127955000Y-62975000D01*
X128675000Y-62975000D02*
X128675000Y-62755000D01*
X125475000Y-62755000D02*
X125475000Y-62975000D01*
X125475000Y-62975000D02*
X126195000Y-62975000D01*
X126195000Y-60275000D02*
X125475000Y-60275000D01*
X125475000Y-60275000D02*
X125475000Y-60495000D01*
D18*
X63194000Y-60034000D02*
G75*
G03X63194000Y-60034000I-100000J0D01*
G01*
D16*
X63584000Y-56925000D02*
X63584000Y-58325000D01*
X63584000Y-56925000D02*
X62669000Y-56925000D01*
X61431000Y-56925000D02*
X60516000Y-56925000D01*
X60516000Y-56925000D02*
X60516000Y-58325000D01*
D18*
X57470709Y-78650000D02*
G75*
G03X57470709Y-78650000I-70709J0D01*
G01*
D16*
X57700000Y-79000000D02*
X57700000Y-78700000D01*
X59200000Y-79000000D02*
X59200000Y-78650000D01*
X57700000Y-77550000D02*
X57700000Y-77200000D01*
X59200000Y-77550000D02*
X59200000Y-77200000D01*
D22*
X100792040Y-118053000D02*
G75*
G03X100792040Y-118053000I-13040J0D01*
G01*
D18*
X101450000Y-118450000D02*
X101650000Y-118450000D01*
X101450000Y-120050000D02*
X101650000Y-120050000D01*
D15*
X136945108Y-116264946D02*
X136602574Y-116264946D01*
X136945108Y-115244946D02*
X136602574Y-115244946D01*
X133413841Y-118583679D02*
X133413841Y-118926213D01*
X134433841Y-118583679D02*
X134433841Y-118926213D01*
X123732574Y-113339946D02*
X124075108Y-113339946D01*
X123732574Y-112319946D02*
X124075108Y-112319946D01*
X129288841Y-95799946D02*
X129288841Y-96729946D01*
X129288841Y-98959946D02*
X129288841Y-98029946D01*
X129288841Y-98959946D02*
X126128841Y-98959946D01*
X129288841Y-95799946D02*
X127828841Y-95799946D01*
X125258841Y-109564946D02*
X125258841Y-108104946D01*
X122098841Y-109564946D02*
X122098841Y-106404946D01*
X122098841Y-109564946D02*
X123028841Y-109564946D01*
X125258841Y-109564946D02*
X124328841Y-109564946D01*
X69815000Y-86355000D02*
X69815000Y-85425000D01*
X69815000Y-83195000D02*
X69815000Y-84125000D01*
X69815000Y-83195000D02*
X72975000Y-83195000D01*
X69815000Y-86355000D02*
X71275000Y-86355000D01*
X123718841Y-102226213D02*
X123718841Y-101883679D01*
X124738841Y-102226213D02*
X124738841Y-101883679D01*
X124763841Y-97651213D02*
X124763841Y-97308679D01*
X123743841Y-97651213D02*
X123743841Y-97308679D01*
X131638841Y-118583679D02*
X131638841Y-118926213D01*
X132658841Y-118583679D02*
X132658841Y-118926213D01*
X129813841Y-118951213D02*
X129813841Y-118608679D01*
X130833841Y-118951213D02*
X130833841Y-118608679D01*
X127882574Y-112269946D02*
X128225108Y-112269946D01*
X127882574Y-113289946D02*
X128225108Y-113289946D01*
X119943841Y-107758679D02*
X119943841Y-108101213D01*
X120963841Y-107758679D02*
X120963841Y-108101213D01*
X82385000Y-82728733D02*
X82385000Y-83071267D01*
X81365000Y-82728733D02*
X81365000Y-83071267D01*
X74215000Y-84453733D02*
X74215000Y-84796267D01*
X75235000Y-84453733D02*
X75235000Y-84796267D01*
X138383841Y-118104946D02*
X138383841Y-119904946D01*
X135163841Y-119904946D02*
X135163841Y-117454946D01*
D16*
X127128841Y-102589946D02*
X127128841Y-100889946D01*
X130228841Y-102589946D02*
X130228841Y-100889946D01*
X130583841Y-103009946D02*
G75*
G03X130583841Y-103009946I-127000J0D01*
G01*
X130083841Y-110234946D02*
G75*
G03X130083841Y-110234946I-127000J0D01*
G01*
X129728841Y-109814946D02*
X129728841Y-108114946D01*
X126628841Y-109814946D02*
X126628841Y-108114946D01*
X79682000Y-81147000D02*
G75*
G03X79682000Y-81147000I-127000J0D01*
G01*
X79135000Y-81375000D02*
X77435000Y-81375000D01*
X79135000Y-84475000D02*
X77435000Y-84475000D01*
X58225000Y-102550000D02*
X60355000Y-102550000D01*
X60355000Y-102550000D02*
X60355000Y-99650000D01*
X60355000Y-90850000D02*
X60355000Y-87950000D01*
X58225000Y-87950000D02*
X60355000Y-87950000D01*
X55425000Y-102550000D02*
X46545000Y-102550000D01*
X46545000Y-102550000D02*
X46545000Y-87950000D01*
X46545000Y-87950000D02*
X55425000Y-87950000D01*
D11*
X61325000Y-100350000D02*
G75*
G03X61325000Y-100350000I-100000J0D01*
G01*
D15*
X117510000Y-93311252D02*
X117510000Y-92788748D01*
X116090000Y-93311252D02*
X116090000Y-92788748D01*
X93003733Y-124965000D02*
X93346267Y-124965000D01*
X93003733Y-125985000D02*
X93346267Y-125985000D01*
X101852000Y-128343733D02*
X101852000Y-128686267D01*
X102872000Y-128343733D02*
X102872000Y-128686267D01*
X122435000Y-60878733D02*
X122435000Y-61221267D01*
X121415000Y-60878733D02*
X121415000Y-61221267D01*
X72010000Y-112060000D02*
X72010000Y-109200000D01*
X73930000Y-112060000D02*
X72010000Y-112060000D01*
X73930000Y-109200000D02*
X73930000Y-112060000D01*
X141200000Y-76755000D02*
X141200000Y-79615000D01*
X141200000Y-79615000D02*
X139280000Y-79615000D01*
X139280000Y-79615000D02*
X139280000Y-76755000D01*
X134870000Y-79615000D02*
X134870000Y-76755000D01*
X136790000Y-79615000D02*
X134870000Y-79615000D01*
X136790000Y-76755000D02*
X136790000Y-79615000D01*
X132535000Y-76755000D02*
X132535000Y-79615000D01*
X132535000Y-79615000D02*
X130615000Y-79615000D01*
X130615000Y-79615000D02*
X130615000Y-76755000D01*
X126390000Y-79625000D02*
X126390000Y-76765000D01*
X128310000Y-79625000D02*
X126390000Y-79625000D01*
X128310000Y-76765000D02*
X128310000Y-79625000D01*
X124140000Y-76765000D02*
X124140000Y-79625000D01*
X124140000Y-79625000D02*
X122220000Y-79625000D01*
X122220000Y-79625000D02*
X122220000Y-76765000D01*
X118015000Y-79625000D02*
X118015000Y-76765000D01*
X119935000Y-79625000D02*
X118015000Y-79625000D01*
X119935000Y-76765000D02*
X119935000Y-79625000D01*
X115810000Y-76755000D02*
X115810000Y-79615000D01*
X115810000Y-79615000D02*
X113890000Y-79615000D01*
X113890000Y-79615000D02*
X113890000Y-76755000D01*
X111640000Y-76765000D02*
X111640000Y-79625000D01*
X111640000Y-79625000D02*
X109720000Y-79625000D01*
X109720000Y-79625000D02*
X109720000Y-76765000D01*
X105310000Y-79625000D02*
X105310000Y-76765000D01*
X107230000Y-79625000D02*
X105310000Y-79625000D01*
X107230000Y-76765000D02*
X107230000Y-79625000D01*
X103260000Y-76745000D02*
X103260000Y-79605000D01*
X103260000Y-79605000D02*
X101340000Y-79605000D01*
X101340000Y-79605000D02*
X101340000Y-76745000D01*
X69560000Y-108402500D02*
X69560000Y-111262500D01*
X67640000Y-108402500D02*
X69560000Y-108402500D01*
X67640000Y-111262500D02*
X67640000Y-108402500D01*
D19*
X138587238Y-138700780D02*
X138587238Y-137700780D01*
X138587238Y-138176971D02*
X138015809Y-138176971D01*
X138015809Y-138700780D02*
X138015809Y-137700780D01*
X137539619Y-138700780D02*
X137539619Y-137700780D01*
X137301523Y-137700780D01*
X137158666Y-137748400D01*
X137063428Y-137843638D01*
X137015809Y-137938876D01*
X136968190Y-138129352D01*
X136968190Y-138272209D01*
X137015809Y-138462685D01*
X137063428Y-138557923D01*
X137158666Y-138653161D01*
X137301523Y-138700780D01*
X137539619Y-138700780D01*
X136539619Y-138700780D02*
X136539619Y-137700780D01*
X136206285Y-138415066D01*
X135872952Y-137700780D01*
X135872952Y-138700780D01*
X135396761Y-138700780D02*
X135396761Y-137700780D01*
X66562238Y-138750780D02*
X66562238Y-137750780D01*
X66562238Y-138226971D02*
X65990809Y-138226971D01*
X65990809Y-138750780D02*
X65990809Y-137750780D01*
X65514619Y-138750780D02*
X65514619Y-137750780D01*
X65276523Y-137750780D01*
X65133666Y-137798400D01*
X65038428Y-137893638D01*
X64990809Y-137988876D01*
X64943190Y-138179352D01*
X64943190Y-138322209D01*
X64990809Y-138512685D01*
X65038428Y-138607923D01*
X65133666Y-138703161D01*
X65276523Y-138750780D01*
X65514619Y-138750780D01*
X64514619Y-138750780D02*
X64514619Y-137750780D01*
X64181285Y-138465066D01*
X63847952Y-137750780D01*
X63847952Y-138750780D01*
X63371761Y-138750780D02*
X63371761Y-137750780D01*
X44014714Y-97625629D02*
X44824942Y-97625629D01*
X44920263Y-97673289D01*
X44967924Y-97720950D01*
X45015584Y-97816271D01*
X45015584Y-98006913D01*
X44967924Y-98102234D01*
X44920263Y-98149894D01*
X44824942Y-98197555D01*
X44014714Y-98197555D01*
X44967924Y-98626499D02*
X45015584Y-98769480D01*
X45015584Y-99007783D01*
X44967924Y-99103104D01*
X44920263Y-99150764D01*
X44824942Y-99198425D01*
X44729621Y-99198425D01*
X44634300Y-99150764D01*
X44586640Y-99103104D01*
X44538979Y-99007783D01*
X44491319Y-98817141D01*
X44443658Y-98721820D01*
X44395998Y-98674159D01*
X44300677Y-98626499D01*
X44205356Y-98626499D01*
X44110035Y-98674159D01*
X44062375Y-98721820D01*
X44014714Y-98817141D01*
X44014714Y-99055443D01*
X44062375Y-99198425D01*
X44491319Y-99960992D02*
X44538979Y-100103974D01*
X44586640Y-100151634D01*
X44681961Y-100199295D01*
X44824942Y-100199295D01*
X44920263Y-100151634D01*
X44967924Y-100103974D01*
X45015584Y-100008653D01*
X45015584Y-99627369D01*
X44014714Y-99627369D01*
X44014714Y-99960992D01*
X44062375Y-100056313D01*
X44110035Y-100103974D01*
X44205356Y-100151634D01*
X44300677Y-100151634D01*
X44395998Y-100103974D01*
X44443658Y-100056313D01*
X44491319Y-99960992D01*
X44491319Y-99627369D01*
X45110905Y-100389936D02*
X45110905Y-101152504D01*
X44729621Y-101343146D02*
X44729621Y-101819751D01*
X45015584Y-101247825D02*
X44014714Y-101581448D01*
X45015584Y-101915072D01*
M02*
